<svg id="svg" version="1.1" xmlns="http://www.w3.org/2000/svg" xmlns:xlink="http://www.w3.org/1999/xlink" width="400" height="80" viewBox="0, 0, 400,80"><g id="svgg"><path id="path0" d="M41.319 4.733 C 41.281 4.770,40.281 4.887,39.097 4.994 C 37.913 5.100,36.751 5.285,36.514 5.404 C 36.277 5.524,35.783 5.675,35.417 5.739 C 34.656 5.872,31.835 6.803,31.583 7.004 C 31.492 7.077,31.079 7.272,30.667 7.436 C 29.739 7.806,26.243 9.750,25.641 10.230 C 25.397 10.424,24.778 10.837,24.266 11.146 C 23.753 11.456,23.333 11.767,23.333 11.838 C 23.333 11.909,23.077 12.118,22.764 12.303 C 22.451 12.488,21.519 13.245,20.692 13.986 C 19.866 14.727,19.140 15.333,19.079 15.333 C 19.018 15.333,18.763 15.479,18.513 15.658 C 18.262 15.836,17.763 16.092,17.404 16.227 C 15.365 16.991,14.693 17.269,14.483 17.434 C 14.355 17.535,14.003 17.702,13.701 17.803 C 13.398 17.905,12.957 18.141,12.720 18.327 C 12.482 18.514,12.173 18.667,12.032 18.667 C 11.891 18.667,11.658 18.767,11.513 18.889 C 11.368 19.012,10.987 19.213,10.667 19.336 C 10.346 19.460,9.858 19.738,9.583 19.954 C 9.308 20.170,8.918 20.476,8.716 20.632 C 7.751 21.380,8.622 21.783,9.906 21.183 C 10.278 21.009,10.865 20.778,11.208 20.670 C 11.552 20.562,11.833 20.405,11.833 20.320 C 11.833 20.236,11.933 20.167,12.055 20.167 C 12.177 20.167,12.646 19.979,13.097 19.751 C 14.714 18.930,14.823 19.582,13.333 21.167 C 12.783 21.752,12.333 22.259,12.333 22.294 C 12.333 22.328,11.827 22.996,11.208 23.777 C 10.590 24.558,9.808 25.622,9.472 26.140 C 9.136 26.659,8.761 27.197,8.639 27.335 C 8.369 27.641,6.500 31.380,6.500 31.615 C 6.500 31.706,6.350 31.917,6.167 32.083 C 5.983 32.249,5.833 32.563,5.833 32.781 C 5.833 32.999,5.653 33.606,5.432 34.130 C 5.211 34.655,4.976 35.384,4.910 35.750 C 4.843 36.117,4.695 36.604,4.581 36.833 C 4.466 37.063,4.317 37.587,4.249 38.000 C 4.181 38.412,3.993 39.090,3.830 39.506 C 3.025 41.557,3.007 51.881,3.804 53.667 C 3.988 54.079,4.192 54.792,4.257 55.250 C 4.322 55.708,4.436 56.160,4.510 56.254 C 4.584 56.348,4.770 56.792,4.922 57.240 C 5.074 57.689,5.304 58.161,5.433 58.290 C 5.561 58.418,5.715 58.719,5.775 58.959 C 5.836 59.198,6.042 59.638,6.234 59.937 C 6.426 60.235,6.771 60.792,7.000 61.174 C 7.229 61.556,7.567 62.036,7.750 62.241 C 7.933 62.446,8.308 62.902,8.583 63.255 C 9.940 64.996,12.626 67.353,13.780 67.818 C 14.071 67.935,14.439 68.174,14.597 68.349 C 14.755 68.524,15.005 68.667,15.151 68.667 C 15.297 68.668,15.647 68.808,15.928 68.980 C 16.209 69.151,16.622 69.347,16.845 69.414 C 17.068 69.482,17.475 69.640,17.750 69.765 C 18.414 70.069,21.349 70.840,22.500 71.013 C 23.004 71.089,24.054 71.245,24.833 71.360 C 27.109 71.695,31.851 71.732,33.077 71.424 C 33.642 71.283,34.559 71.167,35.115 71.167 C 35.670 71.167,36.453 71.049,36.854 70.904 C 37.255 70.760,38.279 70.505,39.130 70.337 C 39.980 70.170,40.768 69.962,40.880 69.874 C 40.992 69.786,41.421 69.632,41.833 69.530 C 42.246 69.428,42.880 69.192,43.244 69.006 C 43.607 68.819,44.008 68.667,44.135 68.667 C 44.261 68.667,44.564 68.558,44.808 68.424 C 45.051 68.291,45.887 67.876,46.667 67.502 C 47.446 67.128,48.633 66.487,49.306 66.078 C 49.978 65.668,50.585 65.333,50.655 65.333 C 50.725 65.333,50.917 65.183,51.083 65.000 C 51.249 64.817,51.459 64.667,51.550 64.667 C 51.640 64.667,52.097 64.342,52.565 63.944 C 53.034 63.547,53.539 63.153,53.689 63.069 C 55.196 62.223,60.833 56.062,60.833 55.262 C 60.833 55.207,61.171 54.698,61.583 54.131 C 61.996 53.564,62.333 53.021,62.332 52.925 C 62.331 52.829,62.662 52.075,63.067 51.250 C 64.105 49.139,64.833 47.436,64.833 47.123 C 64.833 46.975,64.921 46.644,65.028 46.386 C 65.236 45.887,65.913 43.249,66.155 42.000 C 66.763 38.865,66.632 30.765,65.948 29.167 C 65.810 28.846,65.617 28.142,65.517 27.603 C 65.352 26.706,65.161 26.223,64.094 24.000 C 63.736 23.255,62.947 21.991,62.534 21.505 C 62.416 21.365,62.070 20.937,61.767 20.555 C 61.116 19.734,58.793 17.667,58.522 17.667 C 58.418 17.667,58.333 17.593,58.333 17.502 C 58.333 17.412,58.090 17.234,57.792 17.107 C 57.494 16.980,57.070 16.716,56.849 16.521 C 56.629 16.326,56.341 16.167,56.209 16.167 C 56.076 16.167,55.764 16.022,55.516 15.844 C 55.267 15.667,54.843 15.471,54.573 15.408 C 54.304 15.345,53.783 15.164,53.417 15.005 C 52.332 14.534,49.977 13.850,49.124 13.758 C 48.277 13.667,47.203 13.196,46.837 12.755 C 46.614 12.486,46.956 11.609,47.586 10.833 C 48.911 9.202,48.273 6.328,46.369 5.345 C 45.764 5.033,41.540 4.521,41.319 4.733 M310.961 7.276 C 310.296 7.769,309.167 9.132,309.167 9.441 C 309.167 10.171,308.455 10.500,306.864 10.505 C 304.542 10.513,303.112 10.731,302.495 11.170 C 301.650 11.772,302.054 11.906,305.029 12.010 C 308.425 12.129,308.632 12.331,307.846 14.759 C 307.670 15.304,307.439 16.378,307.334 17.146 C 307.228 17.914,307.066 18.739,306.973 18.980 C 306.880 19.220,306.695 20.238,306.562 21.241 C 306.429 22.244,306.241 23.160,306.145 23.276 C 306.049 23.392,305.908 24.184,305.832 25.035 C 305.756 25.887,305.575 27.249,305.431 28.062 C 305.286 28.875,305.088 30.412,304.992 31.478 C 304.895 32.544,304.710 33.792,304.581 34.250 C 304.452 34.708,304.299 35.667,304.242 36.380 C 304.138 37.671,303.649 38.667,303.119 38.667 C 302.145 38.667,301.652 40.420,302.577 40.593 C 303.435 40.754,303.553 41.000,303.518 42.547 C 303.479 44.237,303.032 49.314,302.903 49.523 C 302.851 49.607,302.703 51.127,302.574 52.902 C 302.445 54.676,302.251 56.343,302.143 56.606 C 302.016 56.913,301.924 58.565,301.883 61.250 C 301.807 66.351,301.883 66.009,300.621 66.935 C 298.260 68.668,298.669 69.184,302.539 69.354 C 306.610 69.532,338.742 69.527,339.214 69.347 C 340.704 68.780,341.680 66.361,340.587 65.941 C 340.437 65.884,339.901 65.982,339.396 66.160 C 338.890 66.338,338.125 66.529,337.696 66.586 C 337.268 66.642,336.392 66.814,335.750 66.967 C 334.209 67.336,307.799 67.328,307.030 66.959 C 306.170 66.547,306.124 66.077,306.226 58.750 C 306.318 52.141,306.511 48.516,306.848 47.024 C 306.945 46.598,307.081 45.140,307.152 43.783 C 307.330 40.351,305.648 40.765,319.798 40.667 L 331.750 40.583 332.750 40.062 C 334.642 39.075,334.939 38.035,333.274 38.226 C 331.927 38.382,310.361 38.564,309.290 38.430 C 307.642 38.222,307.597 37.762,308.680 32.117 C 308.764 31.677,308.833 30.943,308.833 30.486 C 308.833 30.030,308.942 29.397,309.074 29.080 C 309.206 28.763,309.393 27.803,309.488 26.946 C 309.584 26.090,309.769 25.085,309.900 24.714 C 310.031 24.344,310.187 23.600,310.246 23.062 C 310.306 22.524,310.496 21.596,310.669 21.000 C 310.841 20.404,311.064 19.401,311.164 18.771 C 311.264 18.140,311.446 17.428,311.567 17.187 C 311.688 16.947,311.839 16.414,311.902 16.003 C 312.113 14.628,312.843 12.837,313.231 12.742 C 313.425 12.694,318.683 12.676,324.917 12.702 L 336.250 12.750 337.103 13.200 C 337.573 13.448,338.141 13.869,338.366 14.137 C 339.677 15.695,340.941 15.052,341.776 12.403 C 342.055 11.519,342.054 11.485,341.721 11.040 L 341.381 10.583 327.982 10.500 C 320.613 10.454,314.481 10.351,314.356 10.270 C 314.074 10.088,314.232 8.603,314.593 8.048 C 315.538 6.595,312.694 5.991,310.961 7.276 M44.032 7.151 C 44.370 7.229,44.933 7.564,45.282 7.893 L 45.917 8.493 45.896 9.885 C 45.857 12.572,45.385 12.990,42.627 12.784 C 38.282 12.459,28.152 12.888,27.123 13.441 C 25.918 14.088,23.631 13.664,24.543 12.962 C 24.748 12.804,25.067 12.557,25.250 12.412 C 26.083 11.757,30.455 9.511,30.928 9.495 C 31.013 9.492,31.458 9.305,31.917 9.080 C 32.375 8.854,32.902 8.669,33.088 8.668 C 33.274 8.667,33.574 8.564,33.755 8.440 C 34.037 8.244,37.771 7.297,39.000 7.109 C 39.833 6.982,43.432 7.012,44.032 7.151 M276.083 8.778 C 275.533 9.007,274.896 9.366,274.667 9.577 C 273.765 10.405,273.715 10.412,268.147 10.500 L 262.878 10.583 262.343 11.107 C 261.940 11.501,261.821 11.748,261.862 12.107 L 261.917 12.583 267.287 12.627 C 272.574 12.671,272.660 12.677,272.847 13.026 C 273.123 13.541,272.947 18.683,272.620 19.673 C 272.483 20.090,272.282 21.247,272.175 22.245 C 272.067 23.243,271.875 24.311,271.746 24.618 C 271.618 24.925,271.438 26.036,271.347 27.086 C 271.256 28.136,271.110 29.128,271.023 29.291 C 270.936 29.454,270.739 30.824,270.585 32.335 C 270.431 33.847,270.206 35.421,270.084 35.833 C 269.963 36.246,269.819 37.454,269.765 38.519 C 269.712 39.584,269.556 40.773,269.418 41.162 C 269.281 41.551,269.092 42.930,268.997 44.226 C 268.903 45.523,268.717 47.183,268.585 47.917 C 268.453 48.650,268.265 50.525,268.167 52.083 C 268.068 53.642,267.878 55.305,267.743 55.779 C 267.608 56.253,267.425 57.941,267.336 59.529 C 267.246 61.117,267.059 62.979,266.920 63.667 C 266.781 64.354,266.667 65.232,266.667 65.617 C 266.666 67.351,266.728 67.333,260.573 67.333 C 255.014 67.333,254.356 67.496,254.339 68.872 C 254.331 69.501,254.249 69.493,261.024 69.541 C 266.413 69.579,266.995 69.610,267.288 69.875 C 267.510 70.076,267.886 70.167,268.500 70.167 C 269.114 70.167,269.490 70.076,269.712 69.875 C 270.003 69.612,270.623 69.575,275.976 69.500 L 281.917 69.417 282.852 68.923 C 283.475 68.594,283.844 68.277,283.960 67.971 C 284.284 67.114,284.198 67.103,277.756 67.230 C 271.154 67.360,271.146 67.359,270.644 66.547 C 270.249 65.908,270.257 60.493,270.655 59.448 C 270.748 59.202,270.902 57.781,270.996 56.292 C 271.189 53.238,271.365 51.442,271.741 48.677 C 271.883 47.629,272.000 46.359,272.000 45.855 C 272.000 45.350,272.143 44.408,272.318 43.761 C 272.492 43.113,272.680 41.869,272.735 40.997 C 272.790 40.124,272.916 39.149,273.016 38.830 C 273.115 38.511,273.256 37.688,273.330 37.000 C 273.632 34.170,273.870 32.538,274.095 31.761 C 274.226 31.309,274.333 30.663,274.333 30.325 C 274.333 29.987,274.478 29.257,274.655 28.703 C 274.832 28.149,275.030 27.145,275.095 26.473 C 275.160 25.800,275.352 24.809,275.523 24.270 C 275.694 23.731,275.833 23.116,275.833 22.904 C 275.833 22.691,276.018 21.932,276.243 21.217 C 276.468 20.502,276.703 19.579,276.766 19.167 C 276.828 18.754,276.952 18.275,277.042 18.101 C 277.131 17.927,277.388 17.140,277.612 16.351 C 278.787 12.222,277.991 12.667,284.210 12.667 L 289.216 12.667 290.233 12.149 C 291.392 11.559,291.907 10.994,291.746 10.487 C 291.639 10.151,291.577 10.148,286.604 10.264 C 280.630 10.404,280.528 10.387,279.962 9.155 L 279.585 8.333 278.334 8.348 C 277.403 8.359,276.828 8.469,276.083 8.778 M103.083 9.465 C 102.628 9.725,101.486 9.757,90.250 9.833 L 77.917 9.917 77.078 10.359 C 76.617 10.603,76.135 10.997,76.007 11.236 C 75.507 12.170,75.323 12.156,87.458 12.161 C 100.357 12.168,99.762 12.066,98.891 14.105 C 98.685 14.588,98.589 15.525,98.509 17.833 C 98.439 19.852,98.328 21.051,98.187 21.307 C 98.069 21.522,97.904 22.422,97.820 23.307 C 97.737 24.192,97.561 25.254,97.430 25.667 C 97.194 26.408,96.833 28.852,96.833 29.711 C 96.833 29.955,96.719 30.491,96.580 30.901 C 96.441 31.312,96.258 32.728,96.174 34.048 C 96.091 35.369,95.911 36.892,95.774 37.433 C 95.637 37.974,95.475 39.317,95.412 40.417 C 95.350 41.517,95.225 42.792,95.136 43.250 C 94.941 44.252,94.734 46.935,94.508 51.378 C 94.416 53.190,94.234 55.103,94.104 55.628 C 93.967 56.181,93.825 57.918,93.768 59.750 C 93.712 61.563,93.565 63.380,93.424 64.000 C 93.005 65.848,93.071 69.937,93.523 70.179 C 94.692 70.805,96.135 70.649,96.936 69.812 C 97.525 69.196,97.632 67.232,97.115 66.495 C 96.793 66.035,96.745 63.991,97.004 61.833 C 97.087 61.146,97.231 59.421,97.325 58.000 C 97.540 54.724,97.806 51.843,98.002 50.667 C 98.085 50.163,98.235 48.550,98.334 47.083 C 98.433 45.617,98.623 43.993,98.757 43.475 C 98.891 42.957,99.075 41.644,99.167 40.558 C 99.258 39.472,99.442 38.283,99.576 37.917 C 99.709 37.550,99.822 36.829,99.826 36.313 C 99.830 35.798,99.952 34.711,100.097 33.897 C 100.477 31.760,100.669 30.552,100.810 29.417 C 100.878 28.867,101.024 28.251,101.135 28.049 C 101.246 27.847,101.379 27.210,101.429 26.633 C 101.480 26.056,101.661 25.096,101.831 24.500 C 102.001 23.904,102.255 22.854,102.395 22.167 C 103.000 19.201,103.363 17.764,103.590 17.439 C 103.724 17.249,103.833 16.924,103.833 16.719 C 103.833 16.514,103.980 15.949,104.158 15.465 C 104.337 14.980,104.571 14.226,104.679 13.789 C 104.806 13.270,105.045 12.852,105.366 12.581 L 105.859 12.167 115.486 12.167 C 125.923 12.167,126.046 12.157,127.233 11.252 C 127.677 10.913,127.833 10.669,127.833 10.314 L 127.833 9.833 117.208 9.832 C 106.887 9.831,106.569 9.822,106.083 9.500 C 105.437 9.072,103.807 9.053,103.083 9.465 M142.441 9.663 C 141.904 9.834,141.299 10.130,141.097 10.321 C 140.894 10.511,140.640 10.667,140.531 10.667 C 140.422 10.667,140.333 10.751,140.333 10.853 C 140.333 10.955,140.108 11.296,139.833 11.609 C 139.558 11.922,139.333 12.301,139.333 12.451 C 139.333 12.601,139.227 12.842,139.098 12.987 C 138.785 13.335,138.003 16.412,137.806 18.068 C 137.719 18.792,137.538 19.599,137.403 19.860 C 137.268 20.122,137.080 20.954,136.986 21.709 C 136.892 22.465,136.709 23.421,136.580 23.833 C 136.450 24.246,136.225 25.516,136.078 26.656 C 135.932 27.796,135.735 28.873,135.641 29.049 C 135.546 29.225,135.412 30.209,135.341 31.235 C 135.271 32.262,135.124 33.269,135.014 33.474 C 134.905 33.678,134.745 34.724,134.660 35.798 C 134.408 38.991,134.416 38.965,133.312 40.007 C 132.173 41.081,132.106 41.427,132.927 41.986 C 133.252 42.207,133.593 42.529,133.685 42.700 C 133.886 43.077,133.580 47.372,133.316 47.865 C 133.221 48.044,133.071 49.403,132.984 50.887 C 132.897 52.370,132.715 54.021,132.580 54.555 C 132.444 55.090,132.332 56.065,132.331 56.722 C 132.330 57.379,132.218 59.417,132.082 61.250 C 131.777 65.387,131.759 69.261,132.044 69.822 C 132.494 70.708,134.513 70.584,135.194 69.629 L 135.553 69.124 135.267 67.020 C 134.966 64.801,135.125 56.567,135.513 54.333 C 135.601 53.829,135.746 52.404,135.835 51.167 C 135.924 49.929,136.143 48.279,136.321 47.500 C 136.499 46.721,136.690 45.371,136.746 44.500 C 136.835 43.112,136.899 42.865,137.261 42.500 L 137.674 42.083 153.903 42.083 C 172.764 42.083,170.856 41.869,170.727 43.972 C 170.582 46.346,170.157 50.861,170.006 51.641 C 169.924 52.068,169.812 53.515,169.757 54.857 C 169.702 56.199,169.548 57.699,169.415 58.190 C 169.282 58.681,169.094 60.508,168.997 62.250 C 168.900 63.992,168.712 65.854,168.577 66.388 C 167.705 69.861,169.455 71.626,172.038 69.880 C 172.860 69.324,172.949 68.772,172.584 66.502 C 172.328 64.911,172.315 64.326,172.475 61.638 C 172.575 59.958,172.701 57.458,172.756 56.083 C 172.810 54.708,172.928 53.246,173.017 52.833 C 173.106 52.421,173.248 51.183,173.331 50.083 C 173.871 42.960,174.122 41.878,175.304 41.587 C 176.729 41.236,177.392 39.500,176.102 39.500 C 174.846 39.500,174.584 39.141,174.818 37.740 C 175.009 36.599,175.203 35.341,175.744 31.750 C 175.896 30.742,176.162 29.429,176.335 28.833 C 176.508 28.238,176.699 27.337,176.761 26.833 C 176.822 26.329,176.965 25.729,177.079 25.500 C 177.192 25.271,177.379 24.483,177.495 23.750 C 177.610 23.017,177.846 22.058,178.019 21.619 C 178.192 21.180,178.333 20.632,178.333 20.401 C 178.333 20.171,178.485 19.648,178.671 19.240 C 178.857 18.833,179.078 18.135,179.162 17.691 C 179.246 17.246,179.421 16.627,179.551 16.316 C 179.680 16.005,179.916 15.375,180.075 14.917 C 180.675 13.186,180.977 12.401,181.234 11.900 C 182.302 9.820,181.343 8.885,178.877 9.602 C 176.304 10.350,174.344 12.909,174.335 15.531 C 174.334 15.869,174.246 16.356,174.140 16.614 C 174.033 16.874,173.897 18.499,173.836 20.250 C 173.753 22.643,173.660 23.559,173.455 24.000 C 173.305 24.323,173.101 25.476,172.997 26.583 C 172.895 27.683,172.707 29.071,172.580 29.667 C 172.454 30.262,172.263 31.837,172.157 33.167 C 172.050 34.496,171.865 35.883,171.745 36.250 C 171.624 36.617,171.473 37.425,171.410 38.046 C 171.323 38.888,171.216 39.218,170.991 39.338 C 170.334 39.690,138.091 39.544,137.769 39.188 C 137.453 38.839,137.595 37.411,138.077 36.083 C 138.210 35.717,138.322 35.039,138.326 34.578 C 138.330 34.116,138.483 33.312,138.667 32.790 C 138.850 32.268,139.003 31.596,139.006 31.296 C 139.009 30.996,139.128 30.262,139.269 29.667 C 139.411 29.071,139.666 27.946,139.836 27.167 C 140.006 26.387,140.254 25.488,140.387 25.167 C 140.521 24.846,140.683 24.171,140.747 23.667 C 140.812 23.162,140.959 22.600,141.075 22.417 C 141.190 22.233,141.338 21.722,141.404 21.280 C 141.470 20.837,141.706 19.992,141.929 19.401 C 142.151 18.809,142.333 18.174,142.333 17.990 C 142.333 17.805,142.472 17.375,142.642 17.035 C 142.812 16.695,143.041 16.049,143.151 15.599 C 143.261 15.149,143.460 14.626,143.592 14.437 C 143.725 14.247,143.833 13.940,143.833 13.753 C 143.833 13.567,144.012 13.077,144.231 12.665 C 145.651 9.989,144.974 8.854,142.441 9.663 M208.309 9.898 C 206.000 10.723,205.022 12.838,204.890 17.292 C 204.840 19.004,204.723 20.595,204.631 20.827 C 204.540 21.060,204.362 22.161,204.237 23.273 C 204.111 24.386,203.889 25.649,203.742 26.080 C 203.596 26.511,203.417 27.513,203.344 28.307 C 203.271 29.101,203.094 30.238,202.951 30.833 C 202.809 31.429,202.605 32.629,202.499 33.500 C 202.394 34.371,202.208 35.496,202.087 36.000 C 201.967 36.504,201.821 37.530,201.764 38.279 C 201.708 39.028,201.546 39.965,201.406 40.362 C 201.265 40.759,201.076 41.908,200.986 42.917 C 200.895 43.925,200.716 45.087,200.588 45.500 C 200.459 45.913,200.268 47.262,200.163 48.500 C 199.986 50.571,199.894 51.196,199.490 53.083 C 199.412 53.450,199.345 54.319,199.341 55.015 C 199.337 55.711,199.218 56.649,199.078 57.099 C 198.937 57.548,198.752 58.967,198.666 60.250 C 198.579 61.533,198.432 63.471,198.338 64.557 C 198.029 68.134,199.398 70.498,201.018 69.185 L 201.407 68.870 201.531 61.894 C 201.647 55.308,201.770 53.262,202.155 51.500 C 202.245 51.087,202.323 50.000,202.328 49.083 C 202.334 48.013,202.455 46.940,202.667 46.083 C 202.848 45.350,202.997 44.459,202.998 44.102 C 203.001 43.173,203.328 40.587,203.591 39.417 C 203.714 38.867,203.862 37.779,203.920 37.000 C 203.978 36.221,204.164 35.096,204.333 34.500 C 204.502 33.904,204.686 32.929,204.743 32.333 C 204.799 31.738,204.950 30.912,205.077 30.500 C 205.205 30.087,205.396 29.157,205.503 28.432 C 205.610 27.708,205.840 26.667,206.015 26.119 C 206.190 25.571,206.334 24.852,206.334 24.520 C 206.335 24.188,206.454 23.692,206.599 23.417 C 206.744 23.142,206.992 22.396,207.149 21.761 C 207.307 21.125,207.510 20.580,207.600 20.550 C 207.905 20.448,208.351 20.923,208.498 21.504 C 208.579 21.823,208.765 22.571,208.912 23.167 C 209.060 23.762,209.327 24.555,209.507 24.928 C 209.686 25.300,209.833 25.727,209.833 25.876 C 209.833 26.025,209.910 26.194,210.003 26.252 C 210.097 26.310,210.361 26.708,210.591 27.137 C 211.203 28.280,211.925 29.345,212.542 30.016 C 212.702 30.190,212.833 30.397,212.833 30.475 C 212.833 30.554,213.377 31.180,214.042 31.869 C 214.706 32.557,216.525 34.462,218.083 36.102 C 221.211 39.394,224.907 43.249,228.533 47.000 C 231.425 49.992,235.333 54.504,235.333 54.851 C 235.333 54.945,235.521 55.268,235.750 55.569 C 235.979 55.869,236.167 56.196,236.167 56.295 C 236.167 56.395,236.275 56.584,236.406 56.716 C 236.747 57.056,237.643 59.001,237.772 59.679 C 237.832 59.993,237.992 60.471,238.129 60.742 C 238.387 61.255,238.376 61.692,238.009 65.417 C 237.600 69.577,237.791 70.333,239.250 70.333 C 240.101 70.333,240.596 69.965,240.757 69.213 C 240.812 68.958,240.958 68.450,241.082 68.083 C 241.770 66.052,241.918 61.914,241.398 59.250 C 240.963 57.023,240.983 56.211,241.674 47.802 C 241.762 46.730,241.914 45.643,242.012 45.385 C 242.110 45.128,242.227 44.129,242.271 43.167 C 242.316 42.204,242.492 40.742,242.663 39.917 C 242.834 39.092,243.058 37.592,243.162 36.583 C 243.266 35.575,243.454 34.337,243.580 33.833 C 243.706 33.329,243.861 32.392,243.924 31.750 C 243.987 31.108,244.174 30.171,244.339 29.667 C 244.505 29.162,244.691 28.300,244.753 27.750 C 244.815 27.200,244.959 26.525,245.073 26.250 C 245.187 25.975,245.334 25.347,245.399 24.855 C 245.464 24.363,245.700 23.388,245.923 22.688 C 246.146 21.989,246.330 21.276,246.331 21.104 C 246.333 20.787,246.942 18.781,247.500 17.250 C 247.667 16.792,247.852 16.136,247.910 15.792 C 247.968 15.449,248.198 14.774,248.423 14.292 C 248.647 13.811,248.831 13.310,248.832 13.180 C 248.833 13.050,248.940 12.825,249.069 12.680 C 249.199 12.535,249.403 11.944,249.521 11.366 C 249.798 10.021,249.658 9.768,248.597 9.699 C 246.236 9.545,244.603 10.695,244.077 12.883 C 243.918 13.543,243.707 14.185,243.608 14.310 C 243.499 14.448,243.394 16.031,243.338 18.393 C 243.276 21.012,243.180 22.367,243.039 22.616 C 242.925 22.817,242.754 23.754,242.660 24.699 C 242.565 25.644,242.347 27.167,242.176 28.083 C 242.004 29.000,241.812 30.537,241.747 31.500 C 241.683 32.462,241.527 33.550,241.400 33.917 C 241.273 34.283,241.092 35.633,240.996 36.917 C 240.900 38.200,240.712 39.687,240.577 40.222 C 240.443 40.756,240.333 41.568,240.333 42.026 C 240.333 43.481,239.826 48.545,239.575 49.594 C 239.442 50.150,239.333 50.979,239.333 51.437 C 239.333 53.339,239.009 53.248,236.854 50.737 C 236.218 49.996,235.484 49.163,235.224 48.885 C 234.963 48.608,234.112 47.690,233.333 46.846 C 232.554 46.001,229.554 42.932,226.667 40.024 C 221.314 34.634,219.306 32.553,218.036 31.079 C 217.643 30.623,217.020 29.912,216.652 29.500 C 216.284 29.087,215.715 28.450,215.388 28.083 C 214.456 27.038,213.333 25.543,213.333 25.346 C 213.333 25.247,213.268 25.167,213.189 25.167 C 213.007 25.167,212.224 24.012,211.659 22.914 C 211.423 22.454,211.032 21.704,210.791 21.247 C 209.726 19.233,209.384 16.771,209.980 15.423 C 210.174 14.984,210.333 14.552,210.333 14.463 C 210.333 14.374,210.473 14.102,210.644 13.859 C 210.814 13.616,211.049 13.117,211.165 12.750 C 211.282 12.383,211.437 12.006,211.511 11.913 C 211.867 11.459,211.881 10.037,211.530 9.850 C 211.066 9.601,209.056 9.631,208.309 9.898 M366.473 10.308 C 365.051 10.874,363.629 12.178,363.389 13.135 C 363.328 13.376,363.125 13.834,362.937 14.153 C 362.638 14.659,362.583 15.112,362.499 17.741 C 362.435 19.746,362.331 20.882,362.185 21.145 C 362.065 21.362,361.901 22.296,361.821 23.219 C 361.741 24.142,361.560 25.427,361.419 26.074 C 361.278 26.721,361.061 28.342,360.938 29.676 C 360.814 31.010,360.634 32.249,360.538 32.429 C 360.442 32.609,360.283 33.804,360.186 35.086 C 360.088 36.368,359.899 37.829,359.766 38.333 C 359.634 38.837,359.443 40.510,359.343 42.050 C 359.244 43.589,359.053 45.427,358.920 46.133 C 358.787 46.839,358.606 48.543,358.516 49.920 C 358.427 51.297,358.268 52.647,358.162 52.920 C 358.057 53.193,357.902 54.729,357.818 56.333 C 357.734 57.938,357.594 59.663,357.505 60.167 C 357.417 60.671,357.262 62.058,357.160 63.250 C 356.935 65.892,356.825 66.369,356.391 66.586 C 355.379 67.091,353.744 68.967,354.050 69.272 C 354.099 69.321,354.864 69.424,355.749 69.500 C 356.826 69.592,357.455 69.725,357.651 69.902 C 358.055 70.268,359.046 70.233,359.792 69.826 C 360.410 69.489,360.582 69.486,376.750 69.523 L 393.083 69.560 394.167 69.084 C 395.545 68.478,395.738 68.309,395.982 67.494 C 396.389 66.136,395.727 65.650,394.280 66.245 C 393.988 66.365,393.412 66.513,393.000 66.574 C 392.587 66.635,391.762 66.812,391.167 66.968 C 389.332 67.446,361.577 67.318,361.090 66.829 C 360.659 66.397,360.661 57.184,361.092 55.500 C 361.221 54.996,361.403 53.249,361.497 51.617 C 361.590 49.986,361.773 48.111,361.903 47.451 C 362.034 46.790,362.224 45.058,362.327 43.601 C 362.430 42.144,362.628 40.419,362.767 39.768 C 362.905 39.116,363.088 37.796,363.172 36.833 C 363.257 35.871,363.436 34.783,363.572 34.417 C 363.708 34.050,363.823 33.375,363.829 32.917 C 363.835 32.458,363.954 31.558,364.094 30.917 C 364.430 29.381,364.660 28.124,364.812 27.000 C 364.880 26.496,365.016 25.933,365.115 25.750 C 365.214 25.567,365.348 25.079,365.412 24.667 C 365.477 24.254,365.702 23.317,365.912 22.583 C 366.122 21.850,366.373 20.950,366.469 20.583 C 366.940 18.793,367.397 17.385,367.604 17.088 C 367.730 16.907,367.834 16.607,367.834 16.421 C 367.834 16.235,367.980 15.845,368.157 15.555 C 368.334 15.264,368.595 14.635,368.737 14.158 C 368.879 13.681,369.062 13.206,369.144 13.104 C 369.335 12.864,369.833 11.133,369.833 10.709 C 369.833 9.754,368.316 9.573,366.473 10.308 M43.132 14.542 C 43.226 14.656,43.329 14.975,43.360 15.250 C 43.432 15.884,44.152 15.897,44.817 15.277 C 45.648 14.503,45.874 14.462,47.277 14.830 C 47.984 15.015,48.719 15.167,48.911 15.167 C 49.102 15.167,49.407 15.268,49.588 15.393 C 49.769 15.517,50.217 15.715,50.583 15.833 C 50.950 15.950,51.449 16.186,51.692 16.356 C 51.936 16.527,52.216 16.667,52.315 16.667 C 53.436 16.667,59.333 22.388,59.333 23.476 C 59.333 23.552,59.476 23.745,59.651 23.903 C 59.826 24.061,60.064 24.429,60.179 24.720 C 60.294 25.012,60.479 25.363,60.590 25.500 C 60.701 25.637,60.887 26.050,61.004 26.417 C 61.121 26.783,61.321 27.243,61.447 27.437 C 61.574 27.632,61.748 28.228,61.835 28.762 C 61.922 29.296,62.113 29.985,62.260 30.294 C 62.926 31.697,62.866 40.801,62.178 42.758 C 61.988 43.297,61.833 43.980,61.833 44.275 C 61.833 44.903,60.887 47.969,60.581 48.333 C 60.465 48.471,60.318 48.829,60.254 49.130 C 59.599 52.212,54.288 59.485,50.750 62.144 C 50.383 62.420,49.968 62.747,49.827 62.871 C 49.413 63.235,46.467 65.167,46.326 65.167 C 46.255 65.167,45.684 65.504,45.057 65.916 C 44.430 66.329,43.821 66.666,43.704 66.666 C 43.587 66.667,42.779 67.004,41.908 67.417 C 41.037 67.829,40.209 68.167,40.070 68.167 C 39.930 68.167,39.500 68.308,39.116 68.482 C 38.731 68.655,37.967 68.885,37.417 68.993 C 36.867 69.101,35.967 69.316,35.417 69.470 C 34.110 69.836,25.616 69.886,24.667 69.533 C 24.346 69.414,23.517 69.216,22.825 69.094 C 22.133 68.972,21.218 68.713,20.792 68.519 C 20.367 68.325,19.959 68.167,19.886 68.167 C 19.610 68.167,17.333 66.964,17.333 66.819 C 17.333 66.735,17.239 66.667,17.124 66.667 C 16.927 66.667,15.370 65.633,15.175 65.372 C 15.124 65.305,14.746 64.953,14.333 64.591 C 13.430 63.797,11.897 61.963,11.750 61.500 C 11.692 61.317,11.587 61.167,11.517 61.167 C 11.319 61.167,10.431 59.708,9.842 58.417 C 9.550 57.775,9.205 57.025,9.076 56.750 C 8.589 55.710,8.012 53.878,7.849 52.858 C 7.756 52.276,7.583 51.683,7.465 51.541 C 7.093 51.093,7.161 40.133,7.542 39.205 C 7.702 38.814,7.833 38.203,7.833 37.848 C 7.833 37.492,7.980 36.725,8.160 36.143 C 8.340 35.560,8.572 34.671,8.677 34.167 C 8.781 33.662,8.962 33.099,9.078 32.914 C 9.194 32.730,9.346 32.317,9.415 31.998 C 9.484 31.678,9.719 31.080,9.937 30.668 C 10.155 30.256,10.333 29.833,10.333 29.727 C 10.333 29.621,10.558 29.106,10.833 28.583 C 11.108 28.061,11.333 27.528,11.333 27.400 C 11.333 27.272,11.403 27.167,11.489 27.167 C 11.574 27.167,11.695 27.006,11.757 26.811 C 11.819 26.615,12.331 25.783,12.893 24.963 C 13.456 24.142,14.075 23.234,14.268 22.944 C 15.333 21.344,20.177 16.883,21.000 16.744 C 21.321 16.690,21.883 16.541,22.250 16.414 C 22.617 16.287,23.592 16.064,24.417 15.920 C 25.242 15.776,26.292 15.553,26.750 15.425 C 27.208 15.297,28.154 15.147,28.851 15.091 C 29.548 15.036,30.373 14.910,30.684 14.812 C 32.178 14.341,42.775 14.111,43.132 14.542 " stroke="none" fill="#404040" fill-rule="evenodd"></path></g></svg>