<svg id="svg" version="1.1" xmlns="http://www.w3.org/2000/svg" xmlns:xlink="http://www.w3.org/1999/xlink" width="400" height="466.6666666666667" viewBox="0, 0, 400,466.6666666666667"><g id="svgg"><path id="path0" d="M193.600 14.751 C 193.270 14.951,189.900 15.182,186.110 15.266 C 181.385 15.371,179.067 15.573,178.730 15.910 C 178.461 16.179,177.567 16.400,176.744 16.400 C 175.921 16.400,175.142 16.570,175.014 16.777 C 174.886 16.984,173.931 17.267,172.891 17.405 C 171.851 17.543,170.280 17.989,169.400 18.396 C 168.520 18.803,167.260 19.251,166.600 19.390 C 164.989 19.732,163.200 20.525,163.200 20.898 C 163.200 21.064,162.763 21.200,162.229 21.200 C 161.694 21.200,160.987 21.470,160.657 21.800 C 160.327 22.130,159.684 22.400,159.229 22.400 C 158.773 22.400,158.400 22.562,158.400 22.761 C 158.400 22.959,157.905 23.298,157.300 23.514 C 156.695 23.729,155.767 24.287,155.239 24.753 C 154.710 25.219,154.101 25.600,153.886 25.600 C 153.670 25.600,153.203 25.934,152.847 26.343 C 152.491 26.751,151.795 27.213,151.300 27.370 C 150.805 27.526,150.400 27.822,150.400 28.027 C 150.400 28.232,150.212 28.400,149.983 28.400 C 149.536 28.400,149.036 28.773,147.164 30.500 C 146.509 31.105,145.877 31.600,145.760 31.600 C 145.379 31.600,140.400 36.813,140.400 37.212 C 140.400 37.425,140.232 37.600,140.027 37.600 C 139.822 37.600,139.543 37.951,139.406 38.380 C 139.270 38.808,138.817 39.267,138.400 39.400 C 137.983 39.533,137.516 40.037,137.363 40.520 C 137.211 41.004,136.777 41.670,136.400 42.000 C 136.023 42.330,135.587 43.005,135.430 43.500 C 135.274 43.995,134.978 44.400,134.773 44.400 C 134.568 44.400,134.400 44.670,134.400 45.000 C 134.400 45.330,134.223 45.600,134.008 45.600 C 133.792 45.600,133.502 46.050,133.364 46.600 C 133.226 47.150,132.953 47.600,132.757 47.600 C 132.560 47.600,132.400 47.941,132.400 48.357 C 132.400 48.774,132.130 49.218,131.800 49.345 C 131.470 49.471,131.200 49.941,131.200 50.387 C 131.200 50.834,131.020 51.200,130.800 51.200 C 130.580 51.200,130.400 51.470,130.400 51.800 C 130.400 52.130,130.228 52.400,130.018 52.400 C 129.808 52.400,129.518 53.030,129.374 53.800 C 129.229 54.570,128.995 55.200,128.853 55.200 C 128.542 55.200,127.745 56.983,127.379 58.500 C 127.233 59.105,126.953 59.600,126.757 59.600 C 126.560 59.600,126.400 60.050,126.400 60.600 C 126.400 61.150,126.226 61.600,126.014 61.600 C 125.801 61.600,125.508 62.500,125.362 63.600 C 125.216 64.700,124.940 65.600,124.748 65.600 C 124.557 65.600,124.400 65.949,124.400 66.376 C 124.400 66.803,124.233 67.256,124.028 67.383 C 123.823 67.509,123.532 68.602,123.381 69.812 C 123.230 71.021,122.948 72.109,122.753 72.229 C 122.559 72.349,122.400 73.067,122.400 73.824 C 122.400 74.581,122.241 75.200,122.047 75.200 C 121.853 75.200,121.567 76.550,121.413 78.200 C 121.258 79.850,120.967 81.200,120.766 81.200 C 120.565 81.200,120.400 82.334,120.400 83.720 C 120.400 85.106,120.191 86.449,119.935 86.705 C 119.640 87.000,119.402 89.441,119.282 93.394 C 119.177 96.818,118.937 99.716,118.746 99.833 C 118.287 100.117,118.297 123.331,118.757 123.820 C 118.953 124.029,119.191 126.768,119.285 129.908 C 119.394 133.547,119.627 135.787,119.928 136.088 C 120.190 136.350,120.400 137.671,120.400 139.056 C 120.400 140.429,120.562 141.653,120.759 141.775 C 120.957 141.897,121.245 143.258,121.400 144.800 C 121.555 146.342,121.843 147.703,122.041 147.825 C 122.238 147.947,122.400 148.656,122.400 149.400 C 122.400 150.144,122.559 150.851,122.753 150.971 C 122.948 151.091,123.230 152.179,123.381 153.388 C 123.532 154.598,123.823 155.691,124.028 155.817 C 124.233 155.944,124.400 156.397,124.400 156.824 C 124.400 157.251,124.557 157.600,124.748 157.600 C 124.939 157.600,125.192 158.449,125.309 159.487 C 125.426 160.525,125.719 161.440,125.961 161.520 C 126.202 161.601,126.400 162.102,126.400 162.633 C 126.400 163.165,126.572 163.600,126.782 163.600 C 126.992 163.600,127.288 164.275,127.440 165.100 C 127.591 165.925,127.834 166.690,127.979 166.800 C 128.336 167.072,129.600 169.821,129.600 170.327 C 129.600 170.551,129.735 170.793,129.900 170.867 C 130.065 170.940,130.735 172.080,131.388 173.400 C 132.041 174.720,132.806 176.038,133.088 176.329 C 133.370 176.619,133.600 177.075,133.600 177.340 C 133.600 177.606,133.960 178.083,134.400 178.400 C 134.840 178.717,135.200 179.199,135.200 179.470 C 135.200 179.742,135.650 180.414,136.200 180.964 C 136.750 181.514,137.200 182.123,137.200 182.318 C 137.200 183.150,147.141 193.600,147.933 193.600 C 148.190 193.600,148.404 193.735,148.409 193.900 C 148.414 194.065,149.310 194.830,150.400 195.600 C 151.490 196.370,152.386 197.135,152.391 197.300 C 152.396 197.465,152.670 197.600,153.000 197.600 C 153.330 197.600,153.600 197.777,153.600 197.992 C 153.600 198.208,154.050 198.498,154.600 198.636 C 155.150 198.774,155.600 199.047,155.600 199.243 C 155.600 199.440,155.960 199.600,156.400 199.600 C 156.840 199.600,157.200 199.768,157.200 199.973 C 157.200 200.178,157.605 200.472,158.100 200.627 C 158.595 200.781,159.090 201.019,159.200 201.154 C 159.665 201.726,161.988 202.800,162.762 202.800 C 163.223 202.800,163.600 202.980,163.600 203.200 C 163.600 203.420,163.960 203.600,164.400 203.600 C 164.840 203.600,165.200 203.757,165.200 203.949 C 165.200 204.141,165.920 204.413,166.800 204.554 C 167.680 204.694,168.400 204.987,168.400 205.205 C 168.400 205.422,168.904 205.600,169.520 205.600 C 170.136 205.600,170.839 205.799,171.083 206.043 C 171.327 206.287,172.758 206.583,174.263 206.701 C 175.768 206.818,177.090 207.035,177.200 207.182 C 178.704 209.193,212.400 209.221,212.400 207.212 C 212.400 207.044,213.673 206.816,215.229 206.705 C 216.784 206.594,218.260 206.300,218.509 206.051 C 218.757 205.803,219.554 205.600,220.280 205.600 C 221.006 205.600,221.600 205.428,221.600 205.218 C 221.600 205.008,222.232 204.718,223.004 204.573 C 223.777 204.428,224.507 204.150,224.628 203.955 C 224.749 203.760,225.197 203.600,225.624 203.600 C 226.051 203.600,226.400 203.420,226.400 203.200 C 226.400 202.980,226.777 202.800,227.238 202.800 C 228.015 202.800,230.342 201.722,230.800 201.150 C 230.910 201.013,231.585 200.774,232.300 200.618 C 233.015 200.463,233.600 200.171,233.600 199.968 C 233.600 199.766,233.870 199.600,234.200 199.600 C 234.530 199.600,234.800 199.432,234.800 199.227 C 234.800 199.022,235.205 198.726,235.700 198.570 C 236.195 198.413,236.891 197.951,237.247 197.543 C 237.603 197.134,238.059 196.800,238.260 196.800 C 238.691 196.800,240.441 195.486,242.255 193.800 C 242.965 193.140,244.049 192.240,244.664 191.800 C 246.431 190.535,248.800 188.021,248.800 187.411 C 248.800 187.105,249.151 186.743,249.580 186.606 C 250.008 186.470,250.467 186.017,250.600 185.600 C 250.733 185.183,251.183 184.733,251.600 184.600 C 252.017 184.467,252.457 184.053,252.577 183.680 C 252.697 183.306,253.246 182.477,253.798 181.838 C 254.349 181.199,254.800 180.500,254.800 180.285 C 254.800 180.070,255.134 179.603,255.543 179.247 C 255.951 178.891,256.413 178.195,256.570 177.700 C 256.726 177.205,257.022 176.800,257.227 176.800 C 257.432 176.800,257.600 176.530,257.600 176.200 C 257.600 175.870,257.760 175.600,257.957 175.600 C 258.153 175.600,258.426 175.150,258.564 174.600 C 258.702 174.050,258.992 173.600,259.208 173.600 C 259.423 173.600,259.600 173.345,259.600 173.032 C 259.600 172.365,260.865 169.860,261.300 169.667 C 261.465 169.593,261.606 169.233,261.613 168.867 C 261.620 168.500,261.890 167.851,262.213 167.424 C 262.536 166.996,262.800 166.231,262.800 165.724 C 262.800 165.216,262.980 164.800,263.200 164.800 C 263.420 164.800,263.600 164.530,263.600 164.200 C 263.600 163.870,263.760 163.600,263.955 163.600 C 264.150 163.600,264.431 162.790,264.579 161.800 C 264.728 160.810,265.018 160.000,265.225 160.000 C 265.431 160.000,265.600 159.460,265.600 158.800 C 265.600 158.140,265.763 157.600,265.962 157.600 C 266.162 157.600,266.449 156.700,266.600 155.600 C 266.751 154.500,267.038 153.600,267.238 153.600 C 267.437 153.600,267.600 152.985,267.600 152.233 C 267.600 151.482,267.775 150.807,267.989 150.733 C 268.203 150.660,268.499 149.295,268.646 147.700 C 268.794 146.105,269.069 144.800,269.257 144.800 C 269.446 144.800,269.600 144.080,269.600 143.200 C 269.600 142.320,269.754 141.600,269.941 141.600 C 270.129 141.600,270.386 139.864,270.513 137.741 C 270.639 135.619,270.925 133.770,271.149 133.632 C 271.900 133.168,272.733 102.173,272.013 101.453 C 271.771 101.211,271.600 98.859,271.600 95.753 C 271.600 92.440,271.444 90.415,271.183 90.328 C 270.949 90.250,270.659 88.301,270.523 85.894 C 270.389 83.532,270.127 81.600,269.940 81.600 C 269.753 81.600,269.600 81.060,269.600 80.400 C 269.600 79.740,269.446 79.200,269.257 79.200 C 269.069 79.200,268.794 77.895,268.646 76.300 C 268.499 74.705,268.203 73.340,267.989 73.267 C 267.775 73.193,267.600 72.518,267.600 71.767 C 267.600 71.015,267.443 70.400,267.252 70.400 C 267.060 70.400,266.784 69.500,266.638 68.400 C 266.492 67.300,266.199 66.400,265.986 66.400 C 265.774 66.400,265.594 65.815,265.587 65.100 C 265.580 64.385,265.310 63.451,264.987 63.024 C 264.664 62.596,264.396 61.786,264.391 61.224 C 264.386 60.661,264.030 59.750,263.600 59.200 C 263.170 58.650,262.814 57.808,262.809 57.329 C 262.804 56.849,262.530 56.187,262.200 55.857 C 261.870 55.527,261.600 54.974,261.600 54.629 C 261.600 54.283,261.434 54.000,261.232 54.000 C 261.029 54.000,260.745 53.460,260.600 52.800 C 260.455 52.140,260.171 51.600,259.968 51.600 C 259.766 51.600,259.600 51.262,259.600 50.849 C 259.600 50.436,259.330 49.874,259.000 49.600 C 258.670 49.326,258.400 48.783,258.400 48.394 C 258.400 48.004,258.127 47.581,257.794 47.453 C 257.461 47.325,257.015 46.766,256.804 46.210 C 256.593 45.655,256.235 45.200,256.010 45.200 C 255.784 45.200,255.600 44.840,255.600 44.400 C 255.600 43.960,255.420 43.600,255.200 43.600 C 254.980 43.600,254.800 43.360,254.800 43.066 C 254.800 42.772,254.260 42.051,253.600 41.463 C 252.940 40.875,252.400 40.213,252.400 39.991 C 252.400 39.769,251.590 38.755,250.600 37.736 C 249.610 36.717,248.800 35.738,248.800 35.560 C 248.800 35.382,248.373 34.823,247.851 34.318 C 245.409 31.955,243.649 30.400,243.416 30.400 C 243.276 30.400,242.745 29.950,242.235 29.400 C 241.725 28.850,241.104 28.400,240.854 28.400 C 240.604 28.400,240.400 28.232,240.400 28.027 C 240.400 27.822,239.995 27.526,239.500 27.370 C 239.005 27.213,238.330 26.777,238.000 26.400 C 237.670 26.023,236.995 25.587,236.500 25.430 C 236.005 25.274,235.600 24.978,235.600 24.773 C 235.600 24.568,235.330 24.400,235.000 24.400 C 234.670 24.400,234.400 24.220,234.400 24.000 C 234.400 23.780,234.113 23.600,233.762 23.600 C 233.068 23.600,230.937 22.501,230.079 21.700 C 229.784 21.425,229.106 21.200,228.571 21.200 C 228.037 21.200,227.600 21.064,227.600 20.898 C 227.600 20.570,226.005 19.829,224.400 19.411 C 223.392 19.148,222.634 18.867,220.800 18.076 C 220.250 17.839,218.855 17.528,217.700 17.385 C 216.545 17.242,215.600 16.962,215.600 16.762 C 215.600 16.563,214.646 16.400,213.480 16.400 C 212.314 16.400,211.139 16.179,210.869 15.909 C 210.544 15.584,208.105 15.322,203.689 15.138 C 200.010 14.985,196.370 14.754,195.600 14.624 C 194.830 14.494,193.930 14.552,193.600 14.751 M200.400 35.943 C 200.400 36.131,201.880 36.387,203.689 36.511 C 205.499 36.635,207.044 36.931,207.123 37.168 C 207.202 37.406,207.681 37.600,208.188 37.600 C 208.694 37.600,209.624 37.869,210.254 38.198 C 210.884 38.526,211.790 38.796,212.267 38.798 C 212.743 38.799,213.193 38.935,213.267 39.100 C 213.477 39.573,215.856 40.800,216.562 40.800 C 216.913 40.800,217.200 40.980,217.200 41.200 C 217.200 41.420,217.470 41.600,217.800 41.600 C 218.130 41.600,218.400 41.760,218.400 41.957 C 218.400 42.153,218.850 42.426,219.400 42.564 C 219.950 42.702,220.400 42.992,220.400 43.208 C 220.400 43.423,220.593 43.600,220.829 43.600 C 221.064 43.600,221.497 43.825,221.789 44.100 C 222.082 44.375,223.066 45.230,223.977 46.000 C 227.051 48.599,229.600 51.078,229.600 51.468 C 229.600 51.681,230.005 52.236,230.500 52.700 C 231.794 53.914,232.400 54.706,232.400 55.183 C 232.400 55.412,232.568 55.600,232.773 55.600 C 232.978 55.600,233.274 56.005,233.430 56.500 C 233.587 56.995,234.004 57.670,234.357 58.000 C 234.711 58.330,235.343 59.275,235.763 60.100 C 236.183 60.925,236.678 61.600,236.863 61.600 C 237.048 61.600,237.200 61.798,237.200 62.040 C 237.200 62.281,237.470 63.091,237.800 63.840 C 238.130 64.588,238.670 65.812,239.000 66.560 C 239.330 67.309,239.600 68.119,239.600 68.360 C 239.600 68.602,239.780 68.800,240.000 68.800 C 240.220 68.800,240.400 69.149,240.400 69.576 C 240.400 70.003,240.570 70.458,240.777 70.586 C 240.984 70.714,241.275 71.627,241.423 72.614 C 241.571 73.602,241.852 74.508,242.046 74.629 C 242.241 74.749,242.400 75.197,242.400 75.624 C 242.400 76.051,242.555 76.400,242.744 76.400 C 242.933 76.400,243.193 77.416,243.321 78.657 C 243.449 79.898,243.744 81.104,243.977 81.337 C 244.210 81.570,244.400 82.624,244.400 83.680 C 244.400 84.736,244.546 85.600,244.725 85.600 C 245.146 85.600,245.948 91.930,246.398 98.800 C 246.593 101.770,246.924 105.820,247.133 107.800 C 247.564 111.868,247.325 122.583,246.777 123.800 C 246.579 124.240,246.339 126.670,246.243 129.200 C 246.036 134.689,245.222 141.200,244.743 141.200 C 244.554 141.200,244.400 142.100,244.400 143.200 C 244.400 144.300,244.231 145.200,244.025 145.200 C 243.818 145.200,243.539 146.055,243.404 147.100 C 243.269 148.145,242.988 149.313,242.780 149.695 C 242.571 150.077,242.400 150.662,242.400 150.995 C 242.400 151.328,242.237 151.600,242.038 151.600 C 241.838 151.600,241.551 152.500,241.400 153.600 C 241.249 154.700,240.962 155.600,240.762 155.600 C 240.563 155.600,240.400 155.849,240.400 156.154 C 240.400 156.459,240.131 157.224,239.802 157.854 C 239.474 158.484,239.204 159.300,239.202 159.667 C 239.201 160.033,239.065 160.393,238.900 160.467 C 238.460 160.662,237.200 163.034,237.200 163.665 C 237.200 163.964,236.863 164.418,236.450 164.676 C 236.038 164.933,235.581 165.622,235.434 166.206 C 235.287 166.791,234.725 167.712,234.184 168.253 C 233.643 168.794,233.200 169.486,233.200 169.791 C 233.200 170.096,232.849 170.457,232.420 170.594 C 231.992 170.730,231.530 171.192,231.394 171.620 C 231.257 172.049,230.978 172.400,230.773 172.400 C 230.568 172.400,230.398 172.625,230.396 172.900 C 230.394 173.175,229.939 173.760,229.385 174.200 C 228.831 174.640,227.551 175.765,226.539 176.700 C 225.527 177.635,224.561 178.400,224.392 178.400 C 224.223 178.400,223.507 178.940,222.800 179.600 C 222.093 180.260,221.264 180.800,220.958 180.800 C 220.651 180.800,220.400 180.980,220.400 181.200 C 220.400 181.420,220.130 181.600,219.800 181.600 C 219.470 181.600,219.200 181.760,219.200 181.955 C 219.200 182.151,218.570 182.429,217.800 182.574 C 217.030 182.718,216.400 183.008,216.400 183.218 C 216.400 183.428,216.130 183.600,215.800 183.600 C 215.470 183.600,215.200 183.780,215.200 184.000 C 215.200 184.220,214.795 184.401,214.300 184.402 C 213.805 184.404,212.884 184.674,212.254 185.002 C 211.624 185.331,210.679 185.600,210.154 185.600 C 209.629 185.600,209.200 185.769,209.200 185.976 C 209.200 186.182,207.936 186.476,206.391 186.628 C 204.846 186.781,203.486 187.061,203.368 187.253 C 203.084 187.711,186.800 187.705,186.800 187.247 C 186.800 187.052,185.630 186.768,184.200 186.615 C 182.770 186.462,181.600 186.171,181.600 185.968 C 181.600 185.766,181.195 185.594,180.700 185.587 C 180.205 185.580,179.451 185.310,179.024 184.987 C 178.596 184.664,177.831 184.400,177.324 184.400 C 176.816 184.400,176.400 184.220,176.400 184.000 C 176.400 183.780,176.040 183.600,175.600 183.600 C 175.160 183.600,174.800 183.434,174.800 183.232 C 174.800 183.029,174.260 182.745,173.600 182.600 C 172.940 182.455,172.400 182.199,172.400 182.031 C 172.400 181.863,171.770 181.387,171.000 180.972 C 170.230 180.557,169.600 180.107,169.600 179.972 C 169.600 179.837,168.969 179.386,168.198 178.971 C 167.426 178.555,166.694 177.897,166.571 177.508 C 166.447 177.119,166.177 176.800,165.970 176.800 C 165.764 176.800,165.203 176.350,164.725 175.800 C 164.247 175.250,163.618 174.800,163.328 174.800 C 163.038 174.800,162.800 174.594,162.800 174.343 C 162.800 174.092,162.305 173.387,161.700 172.775 C 161.095 172.164,160.150 171.098,159.600 170.407 C 159.050 169.716,158.240 168.750,157.800 168.262 C 157.360 167.773,156.657 166.704,156.237 165.887 C 155.817 165.069,155.342 164.400,155.182 164.400 C 155.021 164.400,154.771 163.770,154.626 163.000 C 154.482 162.230,154.192 161.600,153.982 161.600 C 153.772 161.600,153.600 161.330,153.600 161.000 C 153.600 160.670,153.428 160.400,153.218 160.400 C 153.008 160.400,152.718 159.770,152.574 159.000 C 152.429 158.230,152.151 157.600,151.955 157.600 C 151.760 157.600,151.600 157.330,151.600 157.000 C 151.600 156.670,151.420 156.400,151.200 156.400 C 150.980 156.400,150.800 156.022,150.800 155.560 C 150.800 154.814,150.126 152.951,149.216 151.185 C 149.042 150.846,148.771 149.812,148.615 148.887 C 148.458 147.961,148.166 147.103,147.965 146.978 C 147.764 146.854,147.600 146.169,147.600 145.456 C 147.600 144.743,147.401 143.961,147.157 143.717 C 146.913 143.473,146.618 142.082,146.501 140.626 C 146.384 139.170,146.134 137.883,145.944 137.766 C 145.755 137.649,145.600 136.858,145.600 136.010 C 145.600 135.161,145.434 134.407,145.231 134.333 C 144.913 134.218,144.364 127.748,143.743 116.800 C 143.649 115.150,143.374 113.405,143.131 112.922 C 142.862 112.389,142.801 111.368,142.975 110.322 C 143.332 108.172,143.856 101.557,144.411 92.200 C 144.646 88.240,145.010 84.940,145.219 84.867 C 145.429 84.793,145.600 84.208,145.600 83.567 C 145.600 82.925,145.755 82.400,145.945 82.400 C 146.135 82.400,146.386 81.213,146.502 79.763 C 146.619 78.313,146.913 76.927,147.157 76.683 C 147.401 76.439,147.600 75.646,147.600 74.920 C 147.600 74.194,147.763 73.600,147.962 73.600 C 148.162 73.600,148.449 72.700,148.600 71.600 C 148.751 70.500,149.038 69.600,149.238 69.600 C 149.437 69.600,149.600 69.150,149.600 68.600 C 149.600 68.050,149.772 67.600,149.982 67.600 C 150.192 67.600,150.489 66.934,150.642 66.119 C 150.794 65.305,151.252 64.281,151.660 63.844 C 152.067 63.407,152.400 62.757,152.400 62.401 C 152.400 62.045,152.664 61.404,152.987 60.976 C 153.310 60.549,153.580 59.904,153.587 59.543 C 153.594 59.181,153.870 58.782,154.200 58.655 C 154.530 58.529,154.800 58.103,154.800 57.709 C 154.800 57.315,155.160 56.768,155.600 56.493 C 156.040 56.218,156.400 55.750,156.400 55.453 C 156.400 55.155,156.850 54.574,157.400 54.161 C 157.950 53.748,158.400 53.187,158.400 52.915 C 158.400 52.252,165.832 44.907,166.821 44.593 C 167.249 44.457,167.600 44.178,167.600 43.973 C 167.600 43.768,167.870 43.600,168.200 43.600 C 168.530 43.600,168.800 43.423,168.800 43.208 C 168.800 42.992,169.250 42.702,169.800 42.564 C 170.350 42.426,170.800 42.153,170.800 41.957 C 170.800 41.760,171.083 41.600,171.429 41.600 C 171.774 41.600,172.327 41.330,172.657 41.000 C 172.987 40.670,173.604 40.400,174.029 40.400 C 174.453 40.400,174.800 40.220,174.800 40.000 C 174.800 39.780,175.160 39.600,175.600 39.600 C 176.040 39.600,176.400 39.443,176.400 39.251 C 176.400 39.059,177.120 38.787,178.000 38.646 C 178.880 38.506,179.600 38.213,179.600 37.995 C 179.600 37.778,180.305 37.600,181.167 37.600 C 182.028 37.600,182.800 37.400,182.882 37.155 C 182.969 36.892,184.542 36.623,186.715 36.499 C 188.742 36.384,190.400 36.134,190.400 35.945 C 190.400 35.755,192.650 35.600,195.400 35.600 C 198.150 35.600,200.400 35.754,200.400 35.943 M89.467 233.067 C 89.320 233.213,89.200 235.013,89.200 237.067 L 89.200 240.800 195.400 240.800 L 301.600 240.800 301.600 236.800 L 301.600 232.800 195.667 232.800 C 137.403 232.800,89.613 232.920,89.467 233.067 M299.200 258.806 C 299.200 259.041,298.858 259.600,298.441 260.049 C 298.023 260.497,297.562 261.659,297.416 262.632 C 297.270 263.604,296.982 264.400,296.775 264.400 C 296.569 264.400,296.400 264.850,296.400 265.400 C 296.400 265.950,296.243 266.400,296.051 266.400 C 295.859 266.400,295.587 267.120,295.446 268.000 C 295.306 268.880,295.013 269.600,294.795 269.600 C 294.578 269.600,294.400 269.939,294.400 270.354 C 294.400 270.769,294.131 271.624,293.802 272.254 C 293.474 272.884,293.204 273.895,293.202 274.500 C 293.201 275.105,293.064 275.600,292.898 275.600 C 292.504 275.600,291.689 277.457,291.359 279.103 C 291.217 279.816,290.943 280.400,290.750 280.400 C 290.558 280.400,290.400 280.850,290.400 281.400 C 290.400 281.950,290.243 282.400,290.051 282.400 C 289.859 282.400,289.587 283.120,289.446 284.000 C 289.306 284.880,289.033 285.600,288.841 285.600 C 288.648 285.600,288.388 286.095,288.263 286.700 C 287.727 289.294,286.996 291.600,286.709 291.600 C 286.539 291.600,286.400 291.849,286.400 292.154 C 286.400 292.459,286.131 293.224,285.802 293.854 C 285.474 294.484,285.204 295.405,285.202 295.900 C 285.201 296.395,285.020 296.800,284.800 296.800 C 284.580 296.800,284.400 297.160,284.400 297.600 C 284.400 298.040,284.220 298.400,284.000 298.400 C 283.780 298.400,283.600 298.778,283.600 299.240 C 283.600 299.985,282.927 301.845,282.017 303.613 C 281.844 303.950,281.575 304.803,281.420 305.509 C 281.265 306.214,280.972 306.894,280.769 307.019 C 280.566 307.145,280.400 307.777,280.400 308.424 C 280.400 309.071,280.222 309.600,280.005 309.600 C 279.787 309.600,279.494 310.320,279.354 311.200 C 279.213 312.080,278.941 312.800,278.749 312.800 C 278.557 312.800,278.400 313.160,278.400 313.600 C 278.400 314.040,278.243 314.400,278.051 314.400 C 277.859 314.400,277.587 315.118,277.447 315.995 C 277.307 316.872,276.845 318.208,276.420 318.965 C 275.995 319.721,275.526 320.985,275.378 321.774 C 275.230 322.563,274.950 323.307,274.755 323.428 C 274.560 323.549,274.400 324.087,274.400 324.624 C 274.400 325.161,274.222 325.600,274.005 325.600 C 273.787 325.600,273.494 326.320,273.354 327.200 C 273.213 328.080,272.941 328.800,272.749 328.800 C 272.557 328.800,272.400 329.149,272.400 329.576 C 272.400 330.003,272.230 330.458,272.023 330.586 C 271.816 330.714,271.525 331.624,271.378 332.609 C 271.230 333.594,270.994 334.400,270.852 334.400 C 270.476 334.400,269.690 336.375,269.380 338.100 C 269.232 338.925,268.951 339.600,268.755 339.600 C 268.560 339.600,268.400 340.050,268.400 340.600 C 268.400 341.150,268.236 341.600,268.035 341.600 C 267.834 341.600,267.549 342.320,267.400 343.200 C 267.251 344.080,266.966 344.800,266.765 344.800 C 266.564 344.800,266.400 345.250,266.400 345.800 C 266.400 346.350,266.231 346.800,266.025 346.800 C 265.818 346.800,265.528 347.610,265.379 348.600 C 265.231 349.590,264.994 350.400,264.852 350.400 C 264.476 350.400,263.690 352.375,263.380 354.100 C 263.232 354.925,262.951 355.600,262.755 355.600 C 262.560 355.600,262.400 355.949,262.400 356.376 C 262.400 356.803,262.244 357.249,262.053 357.368 C 261.861 357.486,261.589 358.306,261.448 359.191 C 261.306 360.076,261.013 360.800,260.795 360.800 C 260.578 360.800,260.400 361.139,260.400 361.554 C 260.400 361.969,260.131 362.824,259.802 363.454 C 259.474 364.084,259.204 365.005,259.202 365.500 C 259.201 365.995,259.020 366.400,258.800 366.400 C 258.580 366.400,258.400 366.749,258.400 367.176 C 258.400 367.603,258.240 368.051,258.045 368.172 C 257.850 368.293,257.570 369.037,257.422 369.826 C 257.274 370.615,256.832 371.832,256.439 372.530 C 256.047 373.229,255.600 374.475,255.445 375.300 C 255.290 376.125,254.992 376.800,254.782 376.800 C 254.572 376.800,254.400 377.239,254.400 377.776 C 254.400 378.313,254.240 378.851,254.045 378.972 C 253.850 379.093,253.568 379.845,253.418 380.645 C 253.141 382.121,253.025 382.419,251.857 384.662 C 251.496 385.356,251.200 386.391,251.200 386.962 C 251.200 387.533,251.020 388.000,250.800 388.000 C 250.580 388.000,250.400 388.360,250.400 388.800 C 250.400 389.240,250.220 389.600,250.000 389.600 C 249.780 389.600,249.599 390.005,249.598 390.500 C 249.596 390.995,249.326 391.916,248.998 392.546 C 248.669 393.176,248.400 393.941,248.400 394.246 C 248.400 394.551,248.220 394.800,248.000 394.800 C 247.780 394.800,247.599 395.205,247.598 395.700 C 247.596 396.195,247.326 397.116,246.998 397.746 C 246.669 398.376,246.394 399.186,246.387 399.546 C 246.380 399.906,246.110 400.549,245.787 400.976 C 245.464 401.404,245.200 402.259,245.200 402.876 C 245.200 403.494,245.020 404.000,244.800 404.000 C 244.580 404.000,244.400 404.360,244.400 404.800 C 244.400 405.240,244.244 405.600,244.052 405.600 C 243.861 405.600,243.600 406.243,243.473 407.030 C 243.199 408.717,242.331 410.800,241.902 410.800 C 241.736 410.800,241.599 411.205,241.598 411.700 C 241.596 412.195,241.326 413.116,240.998 413.746 C 240.669 414.376,240.400 415.321,240.400 415.846 C 240.400 416.371,240.222 416.800,240.005 416.800 C 239.787 416.800,239.494 417.520,239.354 418.400 C 239.213 419.280,238.941 420.000,238.749 420.000 C 238.557 420.000,238.400 420.450,238.400 421.000 C 238.400 421.550,238.231 422.000,238.025 422.000 C 237.818 422.000,237.528 422.810,237.379 423.800 C 237.231 424.790,236.994 425.600,236.852 425.600 C 236.476 425.600,235.690 427.575,235.380 429.300 C 235.232 430.125,234.951 430.800,234.755 430.800 C 234.560 430.800,234.400 431.149,234.400 431.576 C 234.400 432.003,234.220 432.464,234.000 432.600 C 233.780 432.736,233.599 433.152,233.598 433.524 C 233.596 433.896,233.326 434.716,232.998 435.346 C 232.669 435.976,232.400 436.720,232.400 437.000 C 232.400 437.280,232.131 438.024,231.802 438.654 C 231.474 439.284,231.204 440.205,231.202 440.700 C 231.201 441.195,231.056 441.600,230.879 441.600 C 230.499 441.600,229.195 445.091,229.198 446.100 C 229.199 446.485,229.020 446.800,228.800 446.800 C 228.218 446.800,228.310 447.568,228.971 448.229 C 229.439 448.696,231.534 448.800,240.477 448.800 L 251.411 448.800 252.106 447.197 C 252.488 446.316,252.800 445.236,252.800 444.797 C 252.800 444.359,252.980 444.000,253.200 444.000 C 253.420 444.000,253.600 443.550,253.600 443.000 C 253.600 442.450,253.757 442.000,253.949 442.000 C 254.141 442.000,254.413 441.280,254.554 440.400 C 254.694 439.520,254.987 438.800,255.205 438.800 C 255.422 438.800,255.600 438.361,255.600 437.824 C 255.600 437.287,255.770 436.742,255.977 436.614 C 256.184 436.486,256.475 435.576,256.622 434.591 C 256.770 433.606,257.050 432.800,257.245 432.800 C 257.440 432.800,257.600 432.350,257.600 431.800 C 257.600 431.250,257.769 430.800,257.975 430.800 C 258.182 430.800,258.472 429.990,258.621 429.000 C 258.769 428.010,259.006 427.200,259.148 427.200 C 259.524 427.200,260.310 425.225,260.620 423.500 C 260.768 422.675,261.049 422.000,261.245 422.000 C 261.440 422.000,261.600 421.550,261.600 421.000 C 261.600 420.450,261.760 420.000,261.955 420.000 C 262.150 420.000,262.431 419.190,262.579 418.200 C 262.728 417.210,263.018 416.400,263.225 416.400 C 263.431 416.400,263.600 415.860,263.600 415.200 C 263.600 414.540,263.778 414.000,263.995 414.000 C 264.213 414.000,264.506 413.280,264.646 412.400 C 264.787 411.520,265.059 410.800,265.251 410.800 C 265.443 410.800,265.600 410.451,265.600 410.024 C 265.600 409.597,265.770 409.142,265.977 409.014 C 266.184 408.886,266.475 407.976,266.622 406.991 C 266.770 406.006,267.050 405.200,267.245 405.200 C 267.440 405.200,267.600 404.851,267.600 404.424 C 267.600 403.997,267.756 403.551,267.947 403.432 C 268.139 403.314,268.411 402.494,268.552 401.609 C 268.694 400.724,268.987 400.000,269.205 400.000 C 269.422 400.000,269.600 399.460,269.600 398.800 L 269.600 397.600 303.500 397.606 C 322.145 397.609,337.580 397.744,337.800 397.906 C 338.509 398.427,339.178 399.924,339.444 401.583 C 339.586 402.472,339.859 403.200,340.051 403.200 C 340.243 403.200,340.400 403.560,340.400 404.000 C 340.400 404.440,340.580 404.800,340.800 404.800 C 341.020 404.800,341.200 405.306,341.200 405.924 C 341.200 406.541,341.464 407.396,341.787 407.824 C 342.110 408.251,342.380 409.095,342.387 409.700 C 342.394 410.305,342.578 410.800,342.795 410.800 C 343.013 410.800,343.306 411.520,343.446 412.400 C 343.587 413.280,343.859 414.000,344.051 414.000 C 344.243 414.000,344.400 414.450,344.400 415.000 C 344.400 415.550,344.572 416.000,344.782 416.000 C 344.992 416.000,345.290 416.675,345.445 417.500 C 345.600 418.325,346.058 419.590,346.463 420.312 C 346.868 421.034,347.201 421.934,347.202 422.312 C 347.204 422.690,347.474 423.516,347.802 424.146 C 348.131 424.776,348.400 425.631,348.400 426.046 C 348.400 426.461,348.564 426.800,348.765 426.800 C 348.966 426.800,349.251 427.520,349.400 428.400 C 349.549 429.280,349.834 430.000,350.035 430.000 C 350.236 430.000,350.400 430.450,350.400 431.000 C 350.400 431.550,350.560 432.000,350.755 432.000 C 350.951 432.000,351.232 432.675,351.380 433.500 C 351.690 435.225,352.476 437.200,352.852 437.200 C 352.994 437.200,353.231 438.010,353.379 439.000 C 353.528 439.990,353.818 440.800,354.025 440.800 C 354.231 440.800,354.400 441.250,354.400 441.800 C 354.400 442.350,354.557 442.800,354.749 442.800 C 354.941 442.800,355.213 443.520,355.354 444.400 C 355.494 445.280,355.787 446.000,356.005 446.000 C 356.222 446.000,356.400 446.373,356.400 446.829 C 356.400 448.745,356.759 448.800,369.221 448.800 L 380.899 448.800 380.710 446.520 C 380.606 445.266,380.314 444.171,380.060 444.087 C 379.807 444.002,379.600 443.408,379.600 442.767 C 379.600 442.125,379.434 441.600,379.232 441.600 C 379.029 441.600,378.744 441.015,378.598 440.300 C 378.269 438.689,377.489 436.800,377.153 436.800 C 377.015 436.800,376.786 436.072,376.644 435.183 C 376.405 433.693,375.741 432.086,375.162 431.600 C 375.031 431.490,374.810 430.681,374.671 429.803 C 374.532 428.925,374.235 428.145,374.009 428.070 C 373.784 427.995,373.600 427.408,373.600 426.767 C 373.600 426.125,373.436 425.600,373.235 425.600 C 373.034 425.600,372.749 424.880,372.600 424.000 C 372.451 423.120,372.166 422.400,371.965 422.400 C 371.764 422.400,371.600 421.950,371.600 421.400 C 371.600 420.850,371.431 420.400,371.225 420.400 C 371.018 420.400,370.728 419.590,370.579 418.600 C 370.431 417.610,370.150 416.800,369.955 416.800 C 369.760 416.800,369.600 416.530,369.600 416.200 C 369.600 415.870,369.437 415.600,369.238 415.600 C 369.038 415.600,368.751 414.700,368.600 413.600 C 368.449 412.500,368.162 411.600,367.962 411.600 C 367.763 411.600,367.600 411.150,367.600 410.600 C 367.600 410.050,367.420 409.600,367.200 409.600 C 366.980 409.600,366.799 409.285,366.798 408.900 C 366.796 408.515,366.526 407.684,366.198 407.054 C 365.869 406.424,365.600 405.680,365.600 405.400 C 365.600 405.120,365.331 404.376,365.002 403.746 C 364.674 403.116,364.404 402.195,364.402 401.700 C 364.401 401.205,364.220 400.800,364.000 400.800 C 363.780 400.800,363.600 400.530,363.600 400.200 C 363.600 399.870,363.437 399.600,363.238 399.600 C 363.038 399.600,362.751 398.700,362.600 397.600 C 362.449 396.500,362.162 395.600,361.962 395.600 C 361.763 395.600,361.600 395.240,361.600 394.800 C 361.600 394.360,361.420 394.000,361.200 394.000 C 360.980 394.000,360.800 393.494,360.800 392.876 C 360.800 392.259,360.536 391.404,360.213 390.976 C 359.890 390.549,359.620 389.906,359.613 389.546 C 359.606 389.186,359.331 388.376,359.002 387.746 C 358.674 387.116,358.404 386.195,358.402 385.700 C 358.401 385.205,358.220 384.800,358.000 384.800 C 357.780 384.800,357.600 384.350,357.600 383.800 C 357.600 383.250,357.422 382.800,357.205 382.800 C 356.987 382.800,356.694 382.080,356.554 381.200 C 356.413 380.320,356.141 379.600,355.949 379.600 C 355.757 379.600,355.600 379.240,355.600 378.800 C 355.600 378.360,355.444 378.000,355.253 378.000 C 355.062 378.000,354.803 377.239,354.678 376.309 C 354.554 375.378,354.260 374.553,354.026 374.475 C 353.792 374.397,353.600 373.898,353.600 373.367 C 353.600 372.835,353.431 372.400,353.225 372.400 C 353.018 372.400,352.728 371.590,352.579 370.600 C 352.431 369.610,352.150 368.800,351.955 368.800 C 351.760 368.800,351.600 368.350,351.600 367.800 C 351.600 367.250,351.422 366.800,351.205 366.800 C 350.987 366.800,350.694 366.080,350.554 365.200 C 350.413 364.320,350.141 363.600,349.949 363.600 C 349.757 363.600,349.600 363.240,349.600 362.800 C 349.600 362.360,349.444 362.000,349.253 362.000 C 349.062 362.000,348.803 361.239,348.678 360.309 C 348.554 359.378,348.260 358.553,348.026 358.475 C 347.792 358.397,347.600 357.999,347.600 357.590 C 347.600 357.182,347.420 356.736,347.200 356.600 C 346.980 356.464,346.799 355.958,346.798 355.476 C 346.796 354.994,346.526 354.084,346.198 353.454 C 345.869 352.824,345.600 351.969,345.600 351.554 C 345.600 351.139,345.422 350.800,345.205 350.800 C 344.987 350.800,344.694 350.080,344.554 349.200 C 344.413 348.320,344.141 347.600,343.949 347.600 C 343.757 347.600,343.600 347.150,343.600 346.600 C 343.600 346.050,343.440 345.600,343.245 345.600 C 343.049 345.600,342.768 344.956,342.621 344.170 C 342.473 343.383,342.024 342.156,341.624 341.442 C 341.223 340.728,340.768 339.392,340.612 338.472 C 340.457 337.552,340.166 336.800,339.965 336.800 C 339.764 336.800,339.600 336.350,339.600 335.800 C 339.600 335.250,339.436 334.800,339.235 334.800 C 339.034 334.800,338.749 334.080,338.600 333.200 C 338.451 332.320,338.166 331.600,337.965 331.600 C 337.764 331.600,337.600 331.150,337.600 330.600 C 337.600 330.050,337.440 329.600,337.245 329.600 C 337.049 329.600,336.768 328.925,336.620 328.100 C 336.295 326.294,335.519 324.400,335.102 324.400 C 334.936 324.400,334.799 323.995,334.798 323.500 C 334.796 323.005,334.526 322.084,334.198 321.454 C 333.869 320.824,333.600 319.969,333.600 319.554 C 333.600 319.139,333.443 318.800,333.251 318.800 C 333.059 318.800,332.787 318.080,332.646 317.200 C 332.506 316.320,332.213 315.600,331.995 315.600 C 331.778 315.600,331.600 315.150,331.600 314.600 C 331.600 314.050,331.440 313.600,331.245 313.600 C 331.049 313.600,330.768 312.925,330.620 312.100 C 330.307 310.356,329.523 308.400,329.138 308.400 C 328.991 308.400,328.743 307.648,328.588 306.728 C 328.432 305.808,327.995 304.503,327.616 303.828 C 327.237 303.153,326.800 301.925,326.645 301.100 C 326.490 300.275,326.192 299.600,325.982 299.600 C 325.772 299.600,325.600 299.150,325.600 298.600 C 325.600 298.050,325.443 297.600,325.251 297.600 C 325.059 297.600,324.787 296.880,324.646 296.000 C 324.506 295.120,324.213 294.400,323.995 294.400 C 323.778 294.400,323.600 294.061,323.600 293.646 C 323.600 293.231,323.331 292.376,323.002 291.746 C 322.674 291.116,322.404 290.105,322.402 289.500 C 322.401 288.895,322.264 288.400,322.098 288.400 C 321.717 288.400,320.950 286.605,320.602 284.900 C 320.456 284.185,320.171 283.600,319.968 283.600 C 319.766 283.600,319.600 283.150,319.600 282.600 C 319.600 282.050,319.443 281.600,319.251 281.600 C 319.059 281.600,318.787 280.880,318.646 280.000 C 318.506 279.120,318.213 278.400,317.995 278.400 C 317.778 278.400,317.594 277.905,317.587 277.300 C 317.580 276.695,317.310 275.851,316.987 275.424 C 316.664 274.996,316.400 274.141,316.400 273.524 C 316.400 272.906,316.220 272.400,316.000 272.400 C 315.780 272.400,315.600 272.040,315.600 271.600 C 315.600 271.160,315.420 270.800,315.200 270.800 C 314.980 270.800,314.799 270.395,314.798 269.900 C 314.796 269.405,314.526 268.484,314.198 267.854 C 313.869 267.224,313.600 266.459,313.600 266.154 C 313.600 265.849,313.443 265.600,313.251 265.600 C 313.059 265.600,312.787 264.880,312.646 264.000 C 312.506 263.120,312.213 262.400,311.995 262.400 C 311.778 262.400,311.600 261.950,311.600 261.400 C 311.600 260.850,311.433 260.400,311.228 260.400 C 311.023 260.400,310.798 259.995,310.728 259.500 C 310.585 258.492,299.200 257.806,299.200 258.806 M12.300 261.357 C 11.667 261.837,11.600 262.815,11.600 271.505 L 11.600 281.122 12.860 281.561 C 13.727 281.863,22.736 282.000,41.810 282.000 L 69.500 282.000 69.754 283.269 C 69.893 283.967,70.002 321.203,69.996 366.016 C 69.990 410.830,70.097 447.789,70.235 448.147 C 70.589 449.069,92.112 449.146,93.029 448.229 C 93.520 447.737,93.600 436.067,93.600 364.729 L 93.600 281.800 121.300 281.915 C 136.535 281.979,149.585 281.926,150.300 281.797 L 151.600 281.564 151.600 271.753 C 151.600 263.784,151.493 261.836,151.029 261.371 C 150.203 260.546,13.387 260.532,12.300 261.357 M304.670 297.100 C 304.926 297.705,305.257 299.325,305.407 300.701 C 305.556 302.076,305.841 303.302,306.039 303.424 C 306.238 303.547,306.400 304.076,306.400 304.600 C 306.400 305.124,306.555 305.648,306.743 305.765 C 306.932 305.882,307.187 307.083,307.310 308.435 C 307.432 309.787,307.728 311.088,307.966 311.326 C 308.205 311.565,308.400 312.444,308.400 313.280 C 308.400 314.116,308.566 314.800,308.768 314.800 C 308.971 314.800,309.262 315.970,309.415 317.400 C 309.568 318.830,309.852 320.000,310.047 320.000 C 310.241 320.000,310.400 320.450,310.400 321.000 C 310.400 321.550,310.563 322.000,310.762 322.000 C 310.962 322.000,311.249 322.900,311.400 324.000 C 311.551 325.100,311.793 326.001,311.938 326.003 C 312.290 326.007,313.199 328.003,313.202 328.780 C 313.204 329.121,313.474 329.916,313.802 330.546 C 314.131 331.176,314.400 331.920,314.400 332.200 C 314.400 332.480,314.669 333.224,314.998 333.854 C 315.326 334.484,315.596 335.405,315.598 335.900 C 315.599 336.395,315.780 336.800,316.000 336.800 C 316.220 336.800,316.400 337.250,316.400 337.800 C 316.400 338.350,316.572 338.800,316.782 338.800 C 316.992 338.800,317.290 339.475,317.445 340.300 C 317.600 341.125,318.058 342.390,318.463 343.112 C 318.868 343.834,319.201 344.734,319.202 345.112 C 319.204 345.490,319.474 346.316,319.802 346.946 C 320.131 347.576,320.400 348.431,320.400 348.846 C 320.400 349.261,320.557 349.600,320.749 349.600 C 320.941 349.600,321.213 350.320,321.354 351.200 C 321.494 352.080,321.787 352.800,322.005 352.800 C 322.222 352.800,322.400 353.340,322.400 354.000 C 322.400 354.660,322.566 355.200,322.768 355.200 C 322.971 355.200,323.256 355.785,323.402 356.500 C 323.736 358.137,324.512 360.000,324.860 360.000 C 325.006 360.000,325.249 360.900,325.400 362.000 C 325.551 363.100,325.838 364.000,326.038 364.000 C 326.237 364.000,326.400 364.360,326.400 364.800 C 326.400 365.240,326.556 365.600,326.747 365.600 C 326.938 365.600,327.197 366.361,327.322 367.291 C 327.446 368.222,327.740 369.047,327.974 369.125 C 328.208 369.203,328.400 369.792,328.400 370.433 C 328.400 371.075,328.578 371.600,328.795 371.600 C 329.013 371.600,329.306 372.320,329.446 373.200 C 329.587 374.080,329.859 374.800,330.051 374.800 C 330.243 374.800,330.400 375.070,330.400 375.400 C 330.400 375.927,327.244 376.000,304.395 376.000 L 278.391 376.000 278.656 374.300 C 278.802 373.365,279.074 372.540,279.261 372.467 C 279.447 372.393,279.600 371.988,279.600 371.567 C 279.600 371.145,279.763 370.800,279.962 370.800 C 280.162 370.800,280.449 369.900,280.600 368.800 C 280.751 367.700,280.994 366.800,281.140 366.800 C 281.501 366.800,282.324 364.878,282.641 363.297 C 282.783 362.584,283.058 362.000,283.250 362.000 C 283.443 362.000,283.600 361.460,283.600 360.800 C 283.600 360.140,283.769 359.600,283.975 359.600 C 284.182 359.600,284.472 358.790,284.621 357.800 C 284.769 356.810,285.050 356.000,285.245 356.000 C 285.440 356.000,285.600 355.550,285.600 355.000 C 285.600 354.450,285.778 354.000,285.995 354.000 C 286.213 354.000,286.506 353.280,286.646 352.400 C 286.787 351.520,287.059 350.800,287.251 350.800 C 287.443 350.800,287.600 350.440,287.600 350.000 C 287.600 349.560,287.780 349.200,288.000 349.200 C 288.220 349.200,288.400 348.732,288.400 348.160 C 288.400 347.233,289.032 345.420,290.006 343.549 C 290.193 343.191,290.468 342.246,290.617 341.449 C 290.767 340.652,291.049 340.000,291.245 340.000 C 291.440 340.000,291.600 339.661,291.600 339.246 C 291.600 338.831,291.869 337.976,292.198 337.346 C 292.526 336.716,292.796 335.705,292.798 335.100 C 292.799 334.495,292.980 334.000,293.200 334.000 C 293.420 334.000,293.600 333.730,293.600 333.400 C 293.600 333.070,293.763 332.800,293.962 332.800 C 294.162 332.800,294.449 331.900,294.600 330.800 C 294.751 329.700,295.038 328.800,295.238 328.800 C 295.437 328.800,295.600 328.451,295.600 328.024 C 295.600 327.597,295.756 327.151,295.947 327.032 C 296.139 326.914,296.411 326.094,296.552 325.209 C 296.694 324.324,296.987 323.600,297.205 323.600 C 297.422 323.600,297.600 323.075,297.600 322.433 C 297.600 321.792,297.798 321.201,298.039 321.120 C 298.281 321.040,298.575 319.765,298.694 318.287 C 298.812 316.809,299.065 315.600,299.255 315.600 C 299.445 315.600,299.600 315.161,299.600 314.624 C 299.600 314.087,299.759 313.549,299.952 313.429 C 300.146 313.310,300.432 311.859,300.587 310.206 C 300.742 308.553,301.033 307.200,301.234 307.200 C 301.435 307.200,301.600 306.838,301.600 306.395 C 301.600 305.952,301.771 305.277,301.980 304.895 C 302.190 304.513,302.472 303.168,302.608 301.906 C 302.745 300.645,303.023 299.509,303.228 299.383 C 303.433 299.256,303.600 298.443,303.600 297.576 C 303.600 295.734,304.014 295.549,304.670 297.100 " stroke="none" fill="#040404" fill-rule="evenodd"></path><path id="path1" d="" stroke="none" fill="#080404" fill-rule="evenodd"></path><path id="path2" d="" stroke="none" fill="#080404" fill-rule="evenodd"></path><path id="path3" d="" stroke="none" fill="#080404" fill-rule="evenodd"></path><path id="path4" d="" stroke="none" fill="#080404" fill-rule="evenodd"></path></g></svg>