<svg id="svg" version="1.1" xmlns="http://www.w3.org/2000/svg" xmlns:xlink="http://www.w3.org/1999/xlink" width="400" height="93.0232558139535" viewBox="0, 0, 400,93.0232558139535"><g id="svgg"><path id="path0" d="M3.714 14.303 C 3.139 14.384,3.151 13.627,3.202 45.536 C 3.248 74.192,3.264 75.669,3.548 75.952 C 3.936 76.341,392.067 76.506,392.833 76.118 L 393.250 75.907 393.292 45.120 L 393.334 14.333 392.792 14.333 C 392.494 14.333,304.913 14.315,198.167 14.292 C 91.421 14.269,3.917 14.274,3.714 14.303 M391.932 14.935 C 392.889 15.389,392.852 14.086,392.799 45.619 C 392.744 78.205,392.868 75.206,391.565 75.508 C 390.513 75.752,6.074 75.688,5.250 75.443 C 3.892 75.041,4.003 77.711,3.999 45.308 C 3.994 13.534,3.920 15.682,5.046 14.996 C 5.810 14.530,390.952 14.470,391.932 14.935 M341.500 34.663 L 341.083 34.981 341.038 46.993 L 340.994 59.005 341.361 59.502 C 342.301 60.773,342.334 60.347,342.326 47.100 C 342.320 38.232,342.268 35.136,342.117 34.797 L 341.917 34.345 341.500 34.663 M174.874 34.709 C 174.170 35.039,174.145 35.514,174.199 47.528 L 174.250 58.973 174.654 59.403 C 175.720 60.538,175.724 60.501,175.793 47.917 C 175.867 34.626,175.841 34.257,174.874 34.709 M232.522 34.811 C 232.000 35.333,231.978 35.930,232.032 47.750 L 232.083 58.917 232.470 59.458 C 233.467 60.857,233.502 60.437,233.483 47.183 C 233.465 33.946,233.459 33.874,232.522 34.811 M285.705 34.715 C 285.094 34.993,285.083 35.217,285.083 47.391 L 285.083 59.032 285.571 59.421 L 286.059 59.810 286.520 59.447 L 286.982 59.083 286.991 47.281 C 286.997 39.537,286.941 35.369,286.830 35.160 C 286.576 34.685,286.143 34.514,285.705 34.715 M58.891 34.866 C 58.642 35.250,58.632 58.682,58.880 59.167 C 59.279 59.946,60.058 59.749,60.196 58.833 C 60.338 57.885,60.331 35.924,60.188 35.250 C 60.071 34.697,59.172 34.430,58.891 34.866 M116.833 34.830 C 116.585 34.986,116.338 58.131,116.574 59.096 C 116.682 59.538,117.473 59.927,117.734 59.666 C 117.933 59.467,118.103 36.688,117.914 35.375 C 117.808 34.634,117.438 34.447,116.833 34.830 M210.240 53.250 C 209.923 53.495,209.925 53.507,210.325 53.846 L 210.734 54.191 210.862 53.845 C 211.119 53.148,210.786 52.828,210.240 53.250 " stroke="none" fill="#000000" fill-rule="evenodd"></path><path id="path1" d="M3.037 14.093 L 2.667 14.352 2.667 45.051 C 2.667 78.967,2.597 76.730,3.667 77.020 C 3.896 77.083,91.597 77.141,198.558 77.150 L 393.033 77.167 393.600 76.600 L 394.167 76.033 394.167 45.188 L 394.167 14.342 393.675 14.088 C 392.915 13.695,3.598 13.700,3.037 14.093 M392.792 14.333 L 393.334 14.333 393.292 45.120 L 393.250 75.907 392.833 76.118 C 392.067 76.506,3.936 76.341,3.548 75.952 C 3.264 75.669,3.248 74.192,3.202 45.536 C 3.151 13.627,3.139 14.384,3.714 14.303 C 3.917 14.274,91.421 14.269,198.167 14.292 C 304.913 14.315,392.494 14.333,392.792 14.333 M5.046 14.996 C 3.920 15.682,3.994 13.534,3.999 45.308 C 4.003 77.711,3.892 75.041,5.250 75.443 C 6.074 75.688,390.513 75.752,391.565 75.508 C 392.868 75.206,392.744 78.205,392.799 45.619 C 392.852 14.086,392.889 15.389,391.932 14.935 C 390.952 14.470,5.810 14.530,5.046 14.996 M390.675 15.268 C 391.107 15.340,391.376 15.526,391.675 15.962 L 392.083 16.559 392.083 45.238 C 392.083 77.127,392.172 74.586,391.043 75.015 C 390.245 75.319,5.898 75.207,5.594 74.904 C 4.896 74.205,4.919 75.124,4.865 45.833 C 4.811 16.150,4.804 16.440,5.584 15.598 L 5.984 15.167 198.034 15.169 C 303.661 15.170,390.349 15.214,390.675 15.268 " stroke="none" fill="#000000" fill-rule="evenodd"></path><path id="path2" d="M3.062 13.331 C 2.867 13.410,2.549 13.698,2.354 13.971 L 2.000 14.468 2.000 45.145 C 2.000 78.959,1.943 77.017,2.958 77.792 C 3.417 78.142,393.170 78.093,393.910 77.742 C 394.989 77.230,394.912 79.612,394.960 45.080 L 395.003 13.577 393.923 13.372 C 392.636 13.128,3.666 13.087,3.062 13.331 M393.675 14.088 L 394.167 14.342 394.167 45.188 L 394.167 76.033 393.600 76.600 L 393.033 77.167 198.558 77.150 C 91.597 77.141,3.896 77.083,3.667 77.020 C 2.597 76.730,2.667 78.967,2.667 45.051 L 2.667 14.352 3.037 14.093 C 3.598 13.700,392.915 13.695,393.675 14.088 M5.584 15.598 C 4.804 16.440,4.811 16.150,4.865 45.833 C 4.919 75.124,4.896 74.205,5.594 74.904 C 5.898 75.207,390.245 75.319,391.043 75.015 C 392.172 74.586,392.083 77.127,392.083 45.238 L 392.083 16.559 391.675 15.962 C 391.376 15.526,391.107 15.340,390.675 15.268 C 390.349 15.214,303.661 15.170,198.034 15.169 L 5.984 15.167 5.584 15.598 M390.671 16.449 C 390.898 16.604,391.138 16.810,391.206 16.907 C 391.534 17.380,391.346 73.447,391.015 73.857 L 390.696 74.250 198.344 74.292 L 5.992 74.334 5.829 73.906 C 5.579 73.249,5.609 17.141,5.860 16.591 L 6.054 16.167 198.156 16.167 C 378.331 16.167,390.285 16.184,390.671 16.449 M58.520 33.285 C 57.469 33.803,57.500 33.378,57.502 47.203 C 57.505 60.763,57.474 60.299,58.417 60.850 C 59.596 61.540,60.700 61.060,61.010 59.724 C 61.264 58.628,61.202 35.218,60.942 34.349 C 60.563 33.080,59.703 32.702,58.520 33.285 M116.349 33.211 C 115.180 33.812,115.250 32.932,115.250 46.971 C 115.250 53.908,115.305 59.771,115.372 60.000 C 115.701 61.127,117.563 61.530,118.353 60.644 C 119.170 59.730,119.192 59.332,119.136 46.583 L 119.083 34.750 118.708 34.047 C 118.157 33.016,117.311 32.716,116.349 33.211 M174.226 33.157 C 174.029 33.241,173.673 33.566,173.434 33.879 L 173.000 34.448 173.000 47.050 C 173.000 56.242,173.052 59.766,173.193 60.075 C 173.496 60.740,174.570 61.271,175.436 61.185 C 175.749 61.154,176.512 60.295,176.766 59.687 C 177.169 58.722,177.033 35.145,176.619 34.333 C 176.009 33.136,175.203 32.739,174.226 33.157 M231.887 33.269 C 230.707 33.851,230.750 33.324,230.750 47.167 C 230.750 61.249,230.663 60.353,232.095 61.005 C 233.009 61.422,233.242 61.361,234.092 60.491 L 234.750 59.817 234.800 47.809 C 234.856 34.473,234.847 34.340,233.901 33.508 C 233.251 32.937,232.693 32.871,231.887 33.269 M285.392 33.110 C 284.223 33.357,284.169 33.976,284.169 47.167 C 284.169 59.228,284.221 60.181,284.922 60.792 C 285.623 61.403,287.272 61.168,287.561 60.415 C 287.616 60.271,287.665 54.306,287.670 47.162 C 287.678 33.435,287.664 33.167,286.933 33.167 C 286.810 33.167,286.493 33.137,286.229 33.100 C 285.966 33.064,285.589 33.068,285.392 33.110 M341.083 33.120 C 339.641 33.471,339.667 33.219,339.667 47.253 C 339.667 61.695,339.522 60.647,341.599 61.240 C 342.065 61.373,343.186 60.492,343.449 59.784 C 343.759 58.951,343.750 35.189,343.439 34.445 C 342.996 33.384,342.090 32.875,341.083 33.120 M118.417 47.153 C 118.417 59.518,118.406 59.977,118.099 60.316 C 117.450 61.033,116.179 60.589,115.863 59.533 C 115.612 58.694,115.583 35.890,115.833 34.992 C 116.189 33.709,117.225 33.208,118.000 33.945 L 118.417 34.341 118.417 47.153 M175.736 33.817 C 176.283 34.422,176.355 36.249,176.301 48.053 C 176.240 61.407,176.296 61.000,174.583 60.535 C 173.469 60.233,173.500 60.621,173.501 47.083 C 173.501 33.428,173.445 34.050,174.702 33.688 C 175.459 33.470,175.416 33.464,175.736 33.817 M233.484 33.855 C 234.047 34.458,234.086 35.531,234.000 47.942 L 233.917 59.991 233.557 60.350 C 233.118 60.789,232.222 60.689,231.731 60.146 C 231.224 59.586,231.242 34.729,231.750 34.165 C 232.385 33.459,233.011 33.347,233.484 33.855 M342.172 33.670 C 342.960 34.091,343.000 34.747,343.000 47.255 C 343.000 59.176,342.976 59.671,342.367 60.375 C 341.862 60.959,340.657 60.523,340.351 59.647 C 340.034 58.736,340.097 35.118,340.419 34.496 C 340.809 33.741,341.604 33.366,342.172 33.670 M60.467 34.292 C 60.811 35.052,60.995 57.382,60.672 59.133 C 60.376 60.730,59.331 61.145,58.318 60.067 L 57.917 59.640 57.917 47.164 L 57.917 34.689 58.406 34.178 C 59.161 33.390,60.081 33.441,60.467 34.292 M286.827 33.830 C 287.476 34.178,287.500 34.656,287.491 47.150 C 287.480 60.322,287.483 60.289,286.589 60.526 C 285.892 60.711,285.120 60.469,284.877 59.990 C 284.604 59.451,284.572 35.103,284.844 34.389 C 285.117 33.669,286.040 33.409,286.827 33.830 M27.750 37.664 C 27.383 37.841,26.769 38.035,26.385 38.094 C 25.712 38.198,23.333 39.938,23.333 40.327 C 23.333 40.407,23.108 40.684,22.833 40.944 C 22.557 41.204,22.251 41.679,22.152 42.000 C 22.053 42.321,21.745 43.022,21.467 43.559 C 20.565 45.301,20.631 49.171,21.582 50.301 C 21.796 50.556,22.025 51.048,22.090 51.394 C 22.155 51.741,22.405 52.262,22.646 52.554 C 23.110 53.116,23.146 53.162,23.681 53.875 C 23.870 54.127,24.120 54.333,24.236 54.333 C 24.353 54.333,24.591 54.491,24.766 54.684 C 26.178 56.246,32.051 56.565,34.051 55.189 C 35.539 54.165,36.917 52.634,37.639 51.202 L 38.333 49.825 38.333 46.883 L 38.333 43.942 37.717 42.679 C 36.562 40.314,34.503 38.404,32.667 37.994 C 32.162 37.882,31.650 37.710,31.527 37.612 C 31.096 37.270,28.489 37.305,27.750 37.664 M83.913 37.933 C 82.158 38.843,83.026 40.000,85.462 40.000 C 86.529 40.000,87.171 40.080,87.508 40.254 L 88.000 40.509 88.001 47.296 C 88.001 54.699,88.015 54.806,89.000 55.333 C 90.571 56.174,90.716 55.489,90.680 47.414 L 90.648 40.518 91.149 40.259 C 91.493 40.081,92.119 40.000,93.148 40.000 C 95.692 40.000,96.772 38.712,94.866 37.949 C 93.966 37.589,84.602 37.575,83.913 37.933 M309.620 37.921 C 308.013 38.511,308.000 38.584,308.000 46.715 C 308.000 56.551,307.483 55.730,313.726 55.802 C 318.605 55.859,319.389 55.768,319.562 55.124 C 319.863 54.001,319.620 53.932,315.055 53.833 C 312.931 53.788,311.140 53.696,311.075 53.631 C 310.888 53.443,310.863 48.958,311.046 48.551 C 311.309 47.969,311.554 47.928,315.287 47.837 C 319.525 47.733,319.829 47.617,319.249 46.331 C 318.803 45.342,318.654 45.305,315.192 45.304 C 310.812 45.304,310.821 45.311,310.900 42.285 C 310.961 39.926,310.660 40.093,314.966 40.035 C 319.105 39.980,319.500 39.896,319.500 39.070 C 319.500 38.413,319.043 37.917,318.301 37.769 C 317.242 37.557,310.280 37.679,309.620 37.921 M198.123 38.234 C 197.975 38.383,197.807 38.822,197.750 39.210 C 197.605 40.197,197.724 54.693,197.879 55.004 C 198.106 55.456,198.640 55.693,199.000 55.500 C 199.705 55.122,199.747 54.811,199.833 49.167 C 199.894 45.219,199.974 43.649,200.129 43.379 L 200.341 43.008 201.004 43.651 C 201.368 44.005,201.667 44.368,201.667 44.457 C 201.667 44.547,201.928 44.949,202.248 45.352 C 202.568 45.754,202.831 46.147,202.832 46.224 C 202.833 46.356,203.584 47.333,205.042 49.097 C 205.385 49.513,205.667 49.919,205.667 49.998 C 205.667 50.078,205.760 50.242,205.875 50.364 C 205.990 50.486,206.377 51.020,206.735 51.552 C 207.093 52.084,207.510 52.608,207.661 52.718 C 207.812 52.827,208.231 53.367,208.591 53.917 C 209.933 55.965,210.896 56.311,211.696 55.034 L 212.083 54.417 212.132 47.030 C 212.179 39.744,212.175 39.636,211.825 39.070 C 211.352 38.304,210.906 38.072,210.414 38.335 C 209.643 38.747,209.591 39.101,209.501 44.600 C 209.407 50.403,209.319 50.880,208.554 49.754 C 208.334 49.431,208.094 49.167,208.019 49.167 C 207.945 49.167,207.746 48.861,207.578 48.488 C 207.410 48.115,207.151 47.721,207.004 47.613 C 206.857 47.505,206.559 47.154,206.342 46.833 C 206.125 46.512,205.743 46.025,205.494 45.750 C 205.245 45.475,204.938 45.055,204.812 44.818 C 204.480 44.189,203.667 43.076,203.024 42.367 C 202.717 42.028,202.365 41.555,202.241 41.317 C 202.118 41.078,201.832 40.762,201.606 40.614 C 201.380 40.466,201.148 40.129,201.090 39.866 C 200.825 38.658,198.808 37.549,198.123 38.234 M140.036 38.633 C 139.304 39.316,139.316 39.175,139.369 47.113 C 139.422 55.041,139.401 54.888,140.498 55.444 C 141.563 55.983,141.901 55.098,141.972 51.589 C 142.023 49.092,142.068 48.706,142.359 48.297 L 142.689 47.833 146.985 47.833 L 151.280 47.833 151.473 48.258 C 151.592 48.518,151.667 49.630,151.668 51.133 C 151.669 54.904,152.460 56.594,153.543 55.143 C 153.840 54.745,153.856 54.312,153.840 46.943 C 153.821 38.096,153.764 37.701,152.590 38.329 C 151.907 38.695,151.769 39.257,151.716 41.883 C 151.680 43.712,151.600 44.479,151.407 44.851 L 151.148 45.353 146.891 45.313 L 142.634 45.272 142.359 44.853 C 142.143 44.524,142.065 43.866,142.000 41.812 C 141.890 38.361,141.318 37.435,140.036 38.633 M262.017 38.756 L 261.500 39.345 261.501 46.714 C 261.501 53.883,261.511 54.099,261.848 54.667 C 262.492 55.748,263.049 55.861,263.617 55.024 C 263.994 54.469,264.176 39.994,263.817 39.127 C 263.383 38.078,262.730 37.944,262.017 38.756 M366.471 38.356 C 365.703 38.637,365.667 39.025,365.667 46.958 C 365.667 56.723,365.129 55.833,371.030 55.833 C 375.379 55.833,375.904 55.731,376.032 54.856 C 376.160 53.985,375.569 53.833,372.048 53.833 C 367.842 53.833,368.176 54.529,368.171 45.746 L 368.167 39.409 367.655 38.788 C 367.097 38.112,367.118 38.119,366.471 38.356 M90.722 38.489 C 91.648 38.705,91.673 39.483,90.763 39.828 C 89.997 40.120,89.980 40.289,90.011 47.318 C 90.042 54.161,89.988 54.798,89.435 54.187 C 89.165 53.888,89.140 53.320,89.125 47.166 L 89.110 40.471 88.240 39.980 C 87.476 39.549,87.008 38.936,87.255 38.690 C 87.549 38.395,89.764 38.267,90.722 38.489 M311.067 38.513 C 311.873 38.716,311.977 39.284,311.276 39.646 C 311.078 39.748,310.661 39.979,310.348 40.159 L 309.779 40.487 309.790 42.359 C 309.799 43.793,309.858 44.272,310.043 44.408 C 310.176 44.505,310.334 44.739,310.394 44.928 C 310.454 45.117,310.746 45.533,311.043 45.852 L 311.583 46.433 314.667 46.397 C 317.218 46.366,317.820 46.405,318.154 46.619 C 319.037 47.186,318.233 47.347,314.643 47.322 C 311.273 47.299,310.333 47.495,310.333 48.221 C 310.333 48.309,310.212 48.469,310.063 48.578 C 309.694 48.848,309.719 52.431,310.093 52.844 C 310.225 52.990,310.333 53.230,310.333 53.377 C 310.333 54.174,311.080 54.333,314.817 54.333 C 316.751 54.333,318.333 54.367,318.333 54.409 C 318.333 54.450,318.249 54.670,318.145 54.898 L 317.957 55.311 314.770 55.304 C 313.017 55.301,311.246 55.349,310.833 55.411 C 310.142 55.515,310.045 55.484,309.583 55.001 L 309.083 54.478 309.025 51.031 C 308.958 47.079,308.959 46.728,309.053 42.344 L 309.122 39.105 309.570 38.719 C 310.086 38.276,310.110 38.272,311.067 38.513 M33.688 39.264 C 34.205 39.577,34.699 39.833,34.787 39.833 C 35.214 39.833,36.756 42.074,37.081 43.167 C 37.149 43.396,37.365 43.758,37.561 43.972 C 38.120 44.582,38.104 49.273,37.542 49.872 C 37.335 50.092,37.167 50.334,37.167 50.411 C 37.167 50.752,36.063 52.677,35.824 52.753 C 35.678 52.799,35.452 53.071,35.321 53.358 C 35.144 53.746,34.893 53.941,34.333 54.124 C 33.921 54.260,33.246 54.604,32.833 54.889 C 32.089 55.405,32.067 55.408,29.917 55.413 L 27.750 55.417 26.145 54.622 C 24.860 53.985,24.419 53.669,23.940 53.038 C 23.300 52.196,23.155 52.032,22.771 51.714 C 22.636 51.602,22.437 51.077,22.327 50.547 C 22.218 50.017,22.007 49.358,21.859 49.083 C 21.431 48.288,21.479 45.493,21.941 44.417 C 22.137 43.958,22.352 43.250,22.419 42.843 C 22.508 42.300,22.690 41.970,23.103 41.604 C 23.413 41.330,23.667 41.012,23.667 40.898 C 23.667 40.210,26.552 38.667,27.838 38.667 L 28.497 38.667 27.987 39.154 C 27.684 39.444,27.207 39.687,26.811 39.754 C 26.332 39.835,26.093 39.979,25.962 40.267 C 25.862 40.487,25.736 40.667,25.682 40.667 C 25.482 40.669,24.037 42.097,23.827 42.500 C 23.621 42.893,23.373 43.842,22.974 45.750 C 22.607 47.507,23.579 51.507,24.490 51.995 C 24.667 52.089,24.857 52.313,24.914 52.491 C 24.971 52.670,25.182 52.863,25.384 52.921 C 25.585 52.979,25.980 53.288,26.261 53.609 C 26.720 54.134,26.880 54.202,27.844 54.285 C 28.434 54.336,29.009 54.451,29.123 54.541 C 29.236 54.631,29.461 54.652,29.623 54.589 C 29.784 54.526,30.536 54.410,31.293 54.331 C 32.537 54.201,32.724 54.134,33.226 53.635 C 33.532 53.332,34.121 52.805,34.536 52.465 C 35.102 52.002,35.336 51.666,35.473 51.120 C 35.574 50.720,35.843 50.192,36.071 49.946 C 36.887 49.066,36.946 44.505,36.152 43.769 C 35.914 43.549,35.622 43.019,35.502 42.590 C 35.336 41.999,35.089 41.647,34.475 41.130 C 34.031 40.755,33.667 40.350,33.667 40.230 C 33.667 40.111,33.348 39.930,32.958 39.830 C 31.732 39.513,31.670 39.485,31.494 39.155 C 31.399 38.978,31.193 38.826,31.036 38.817 C 30.850 38.806,30.896 38.752,31.167 38.662 C 31.821 38.444,32.670 38.647,33.688 39.264 M85.716 38.642 C 85.991 38.750,85.982 38.792,85.606 39.146 L 85.195 39.531 85.007 39.179 C 84.697 38.600,85.010 38.363,85.716 38.642 M93.748 38.663 C 94.121 39.267,93.363 39.619,92.741 39.130 L 92.271 38.760 92.677 38.647 C 93.287 38.476,93.636 38.482,93.748 38.663 M199.462 38.834 C 199.762 39.016,200.227 39.522,200.496 39.958 C 200.765 40.394,201.155 40.918,201.363 41.124 C 201.570 41.329,201.855 41.714,201.995 41.979 C 202.282 42.520,203.432 44.035,204.036 44.667 C 204.255 44.896,204.531 45.323,204.651 45.617 C 204.770 45.910,205.047 46.268,205.266 46.412 C 205.485 46.556,205.768 46.915,205.893 47.212 C 206.019 47.508,206.394 48.037,206.727 48.387 C 207.061 48.737,207.333 49.084,207.333 49.159 C 207.333 49.233,207.577 49.532,207.875 49.822 C 208.173 50.113,208.498 50.590,208.598 50.884 C 208.754 51.342,208.858 51.417,209.343 51.417 C 210.303 51.417,210.328 51.254,210.331 44.979 C 210.333 40.360,210.375 39.340,210.568 39.179 C 211.026 38.800,211.084 39.432,211.209 46.167 C 211.277 49.879,211.345 53.269,211.359 53.699 C 211.427 55.845,210.098 55.548,208.700 53.106 C 208.489 52.738,208.169 52.333,207.988 52.207 C 207.808 52.080,207.482 51.626,207.263 51.197 C 207.045 50.768,206.671 50.235,206.433 50.013 C 206.195 49.790,206.000 49.531,206.000 49.437 C 206.000 49.343,205.763 49.022,205.474 48.724 C 205.185 48.425,204.792 47.926,204.599 47.614 C 203.737 46.213,202.903 45.048,202.470 44.641 C 202.212 44.398,202.000 44.098,202.000 43.973 C 202.000 43.849,201.851 43.654,201.670 43.541 C 201.488 43.427,201.156 42.971,200.931 42.528 C 200.560 41.796,200.476 41.728,200.030 41.793 C 199.204 41.915,199.167 42.191,199.167 48.233 C 199.167 53.543,199.067 54.833,198.657 54.833 C 198.285 54.833,198.181 53.113,198.149 46.412 C 198.110 38.033,198.113 38.012,199.462 38.834 M317.842 38.708 C 317.837 38.777,317.833 38.983,317.833 39.167 C 317.833 39.625,317.428 39.585,317.106 39.095 C 316.861 38.720,316.863 38.684,317.129 38.612 C 317.514 38.509,317.853 38.555,317.842 38.708 M316.250 38.833 C 315.780 39.035,312.875 39.035,312.750 38.833 C 312.683 38.726,313.343 38.671,314.615 38.678 C 315.870 38.686,316.463 38.742,316.250 38.833 M141.334 41.907 C 141.335 44.551,141.484 45.300,142.132 45.935 L 142.583 46.377 146.902 46.373 L 151.221 46.370 151.533 45.977 C 152.401 44.881,152.500 44.471,152.500 41.955 C 152.500 39.423,152.694 38.637,153.197 39.133 C 153.520 39.452,153.520 54.215,153.197 54.533 C 152.682 55.042,152.500 54.248,152.500 51.493 C 152.500 47.152,152.747 47.333,146.849 47.333 C 141.031 47.333,141.333 47.118,141.333 51.264 C 141.333 54.108,141.174 54.911,140.701 54.440 C 140.122 53.861,140.067 39.940,140.641 39.281 C 141.161 38.684,141.333 39.336,141.334 41.907 M263.333 46.601 C 263.333 53.482,263.265 54.500,262.802 54.500 C 262.409 54.500,262.333 53.235,262.333 46.654 C 262.333 39.238,262.385 38.694,263.036 39.283 C 263.312 39.533,263.333 40.047,263.333 46.601 M367.232 39.597 C 367.288 39.742,367.333 42.812,367.333 46.419 C 367.333 50.027,367.402 53.160,367.487 53.383 C 367.775 54.139,368.680 54.333,371.920 54.333 C 374.584 54.333,374.833 54.358,374.831 54.625 C 374.825 55.314,374.666 55.350,371.819 55.321 C 370.314 55.306,368.805 55.348,368.464 55.414 C 367.784 55.547,366.807 55.092,366.583 54.538 C 366.453 54.215,366.472 39.681,366.603 39.469 C 366.744 39.241,367.125 39.318,367.232 39.597 M32.365 40.216 C 34.948 41.372,37.048 46.715,35.733 48.787 C 35.604 48.991,35.396 49.598,35.270 50.136 C 35.052 51.069,33.838 52.574,33.108 52.813 C 33.003 52.848,32.723 53.082,32.486 53.335 C 31.602 54.276,28.290 54.218,26.911 53.238 C 26.469 52.924,25.980 52.667,25.824 52.667 C 25.665 52.667,25.448 52.444,25.331 52.161 C 25.216 51.883,24.916 51.397,24.664 51.080 C 23.332 49.404,23.445 44.130,24.852 42.333 C 25.867 41.037,26.606 40.359,27.188 40.192 C 28.009 39.956,31.824 39.973,32.365 40.216 " stroke="none" fill="#000000" fill-rule="evenodd"></path><path id="path3" d="M117.008 33.677 C 115.663 33.977,115.669 33.915,115.668 47.231 C 115.667 60.852,115.643 60.667,117.383 60.667 C 118.467 60.667,118.417 61.324,118.417 47.153 L 118.417 34.341 118.000 33.945 C 117.652 33.613,117.489 33.569,117.008 33.677 M174.702 33.688 C 173.445 34.050,173.501 33.428,173.501 47.083 C 173.500 60.621,173.469 60.233,174.583 60.535 C 176.296 61.000,176.240 61.407,176.301 48.053 C 176.355 36.249,176.283 34.422,175.736 33.817 C 175.416 33.464,175.459 33.470,174.702 33.688 M232.417 33.658 C 231.351 34.094,231.417 33.213,231.417 47.167 C 231.417 59.313,231.429 59.812,231.731 60.146 C 232.222 60.689,233.118 60.789,233.557 60.350 L 233.917 59.991 234.000 47.942 C 234.101 33.350,234.060 32.985,232.417 33.658 M341.127 33.761 C 340.135 34.299,340.167 33.863,340.167 47.050 C 340.167 59.970,340.168 59.986,341.010 60.422 C 341.929 60.897,342.431 60.645,342.810 59.517 C 343.133 58.554,343.073 35.807,342.744 34.700 C 342.404 33.553,341.972 33.303,341.127 33.761 M58.406 34.178 L 57.917 34.689 57.917 47.164 L 57.917 59.640 58.318 60.067 C 59.331 61.145,60.376 60.730,60.672 59.133 C 60.995 57.382,60.811 35.052,60.467 34.292 C 60.081 33.441,59.161 33.390,58.406 34.178 M285.219 33.798 C 284.701 34.127,284.667 34.958,284.669 47.219 C 284.672 60.620,284.649 60.283,285.589 60.527 C 286.420 60.742,287.054 60.478,287.282 59.822 C 287.555 59.038,287.586 35.298,287.316 34.521 C 287.051 33.761,285.900 33.364,285.219 33.798 M342.326 47.100 C 342.334 60.347,342.301 60.773,341.361 59.502 L 340.994 59.005 341.038 46.993 L 341.083 34.981 341.500 34.663 L 341.917 34.345 342.117 34.797 C 342.268 35.136,342.320 38.232,342.326 47.100 M175.751 35.894 C 175.901 37.130,175.757 59.012,175.596 59.458 C 175.420 59.948,175.151 59.932,174.654 59.403 L 174.250 58.973 174.199 47.528 C 174.145 35.514,174.170 35.039,174.874 34.709 C 175.381 34.472,175.617 34.791,175.751 35.894 M233.354 35.012 C 233.416 35.235,233.474 40.712,233.483 47.183 C 233.502 60.437,233.467 60.857,232.470 59.458 L 232.083 58.917 232.032 47.750 C 232.004 41.608,232.028 36.259,232.086 35.863 C 232.259 34.674,233.101 34.109,233.354 35.012 M286.830 35.160 C 286.941 35.369,286.997 39.537,286.991 47.281 L 286.982 59.083 286.520 59.447 L 286.059 59.810 285.571 59.421 L 285.083 59.032 285.083 47.391 C 285.083 40.988,285.138 35.556,285.205 35.319 C 285.437 34.494,286.422 34.397,286.830 35.160 M60.188 35.250 C 60.331 35.924,60.338 57.885,60.196 58.833 C 60.058 59.749,59.279 59.946,58.880 59.167 C 58.632 58.682,58.642 35.250,58.891 34.866 C 59.172 34.430,60.071 34.697,60.188 35.250 M117.914 35.375 C 118.103 36.688,117.933 59.467,117.734 59.666 C 117.473 59.927,116.682 59.538,116.574 59.096 C 116.338 58.131,116.585 34.986,116.833 34.830 C 117.438 34.447,117.808 34.634,117.914 35.375 M87.956 38.493 C 86.865 38.705,86.971 39.264,88.240 39.980 L 89.110 40.471 89.125 47.166 C 89.140 53.320,89.165 53.888,89.435 54.187 C 89.988 54.798,90.042 54.161,90.011 47.318 C 89.980 40.289,89.997 40.120,90.763 39.828 C 91.136 39.687,91.614 38.892,91.435 38.712 C 91.111 38.389,89.136 38.265,87.956 38.493 M309.570 38.719 L 309.122 39.105 309.053 42.344 C 308.959 46.728,308.958 47.079,309.025 51.031 L 309.083 54.478 309.583 55.001 C 310.045 55.484,310.142 55.515,310.833 55.411 C 311.246 55.349,313.017 55.301,314.770 55.304 L 317.957 55.311 318.145 54.898 C 318.249 54.670,318.333 54.450,318.333 54.409 C 318.333 54.367,316.751 54.333,314.817 54.333 C 311.080 54.333,310.333 54.174,310.333 53.377 C 310.333 53.230,310.225 52.990,310.093 52.844 C 309.719 52.431,309.694 48.848,310.063 48.578 C 310.212 48.469,310.333 48.309,310.333 48.221 C 310.333 47.495,311.273 47.299,314.643 47.322 C 318.233 47.347,319.037 47.186,318.154 46.619 C 317.820 46.405,317.218 46.366,314.667 46.397 L 311.583 46.433 311.043 45.852 C 310.746 45.533,310.454 45.117,310.394 44.928 C 310.334 44.739,310.176 44.505,310.043 44.408 C 309.858 44.272,309.799 43.793,309.790 42.359 L 309.779 40.487 310.348 40.159 C 310.661 39.979,311.078 39.748,311.276 39.646 C 311.977 39.284,311.873 38.716,311.067 38.513 C 310.110 38.272,310.086 38.276,309.570 38.719 M31.167 38.662 C 30.896 38.752,30.850 38.806,31.036 38.817 C 31.193 38.826,31.399 38.978,31.494 39.155 C 31.670 39.485,31.732 39.513,32.958 39.830 C 33.348 39.930,33.667 40.111,33.667 40.230 C 33.667 40.350,34.031 40.755,34.475 41.130 C 35.089 41.647,35.336 41.999,35.502 42.590 C 35.622 43.019,35.914 43.549,36.152 43.769 C 36.946 44.505,36.887 49.066,36.071 49.946 C 35.843 50.192,35.574 50.720,35.473 51.120 C 35.336 51.666,35.102 52.002,34.536 52.465 C 34.121 52.805,33.532 53.332,33.226 53.635 C 32.724 54.134,32.537 54.201,31.293 54.331 C 30.536 54.410,29.784 54.526,29.623 54.589 C 29.461 54.652,29.236 54.631,29.123 54.541 C 29.009 54.451,28.434 54.336,27.844 54.285 C 26.880 54.202,26.720 54.134,26.261 53.609 C 25.980 53.288,25.585 52.979,25.384 52.921 C 25.182 52.863,24.971 52.670,24.914 52.491 C 24.857 52.313,24.667 52.089,24.490 51.995 C 23.579 51.507,22.607 47.507,22.974 45.750 C 23.373 43.842,23.621 42.893,23.827 42.500 C 24.037 42.097,25.482 40.669,25.682 40.667 C 25.736 40.667,25.862 40.487,25.962 40.267 C 26.093 39.979,26.332 39.835,26.811 39.754 C 27.207 39.687,27.684 39.444,27.987 39.154 L 28.497 38.667 27.838 38.667 C 26.552 38.667,23.667 40.210,23.667 40.898 C 23.667 41.012,23.413 41.330,23.103 41.604 C 22.690 41.970,22.508 42.300,22.419 42.843 C 22.352 43.250,22.137 43.958,21.941 44.417 C 21.479 45.493,21.431 48.288,21.859 49.083 C 22.007 49.358,22.218 50.017,22.327 50.547 C 22.437 51.077,22.636 51.602,22.771 51.714 C 23.155 52.032,23.300 52.196,23.940 53.038 C 24.419 53.669,24.860 53.985,26.145 54.622 L 27.750 55.417 29.917 55.413 C 32.067 55.408,32.089 55.405,32.833 54.889 C 33.246 54.604,33.921 54.260,34.333 54.124 C 34.893 53.941,35.144 53.746,35.321 53.358 C 35.452 53.071,35.678 52.799,35.824 52.753 C 36.063 52.677,37.167 50.752,37.167 50.411 C 37.167 50.334,37.335 50.092,37.542 49.872 C 38.104 49.273,38.120 44.582,37.561 43.972 C 37.365 43.758,37.149 43.396,37.081 43.167 C 36.756 42.074,35.214 39.833,34.787 39.833 C 34.699 39.833,34.205 39.577,33.688 39.264 C 32.670 38.647,31.821 38.444,31.167 38.662 M84.919 38.663 C 84.863 38.753,84.903 38.985,85.007 39.179 L 85.195 39.531 85.606 39.146 C 85.982 38.792,85.991 38.750,85.716 38.642 C 85.283 38.471,85.034 38.477,84.919 38.663 M92.677 38.647 L 92.271 38.760 92.741 39.130 C 93.320 39.586,93.440 39.590,93.669 39.163 C 93.989 38.564,93.634 38.379,92.677 38.647 M198.314 38.870 C 197.843 39.750,198.167 54.833,198.657 54.833 C 199.067 54.833,199.167 53.543,199.167 48.233 C 199.167 42.191,199.204 41.915,200.030 41.793 C 200.476 41.728,200.560 41.796,200.931 42.528 C 201.156 42.971,201.488 43.427,201.670 43.541 C 201.851 43.654,202.000 43.849,202.000 43.973 C 202.000 44.098,202.212 44.398,202.470 44.641 C 202.903 45.048,203.737 46.213,204.599 47.614 C 204.792 47.926,205.185 48.425,205.474 48.724 C 205.763 49.022,206.000 49.343,206.000 49.437 C 206.000 49.531,206.195 49.790,206.433 50.013 C 206.671 50.235,207.045 50.768,207.263 51.197 C 207.482 51.626,207.808 52.080,207.988 52.207 C 208.169 52.333,208.489 52.738,208.700 53.106 C 210.098 55.548,211.427 55.845,211.359 53.699 C 211.345 53.269,211.277 49.879,211.209 46.167 C 211.084 39.432,211.026 38.800,210.568 39.179 C 210.375 39.340,210.333 40.360,210.331 44.979 C 210.328 51.254,210.303 51.417,209.343 51.417 C 208.858 51.417,208.754 51.342,208.598 50.884 C 208.498 50.590,208.173 50.113,207.875 49.822 C 207.577 49.532,207.333 49.233,207.333 49.159 C 207.333 49.084,207.061 48.737,206.727 48.387 C 206.394 48.037,206.019 47.508,205.893 47.212 C 205.768 46.915,205.485 46.556,205.266 46.412 C 205.047 46.268,204.770 45.910,204.651 45.617 C 204.531 45.323,204.255 44.896,204.036 44.667 C 203.432 44.035,202.282 42.520,201.995 41.979 C 201.855 41.714,201.570 41.329,201.363 41.124 C 201.155 40.918,200.765 40.394,200.496 39.958 C 199.723 38.707,198.680 38.186,198.314 38.870 M317.129 38.612 C 316.863 38.684,316.861 38.720,317.106 39.095 C 317.428 39.585,317.833 39.625,317.833 39.167 C 317.833 38.983,317.837 38.777,317.842 38.708 C 317.853 38.555,317.514 38.509,317.129 38.612 M312.750 38.833 C 312.875 39.035,315.780 39.035,316.250 38.833 C 316.463 38.742,315.870 38.686,314.615 38.678 C 313.343 38.671,312.683 38.726,312.750 38.833 M140.641 39.281 C 140.067 39.940,140.122 53.861,140.701 54.440 C 141.174 54.911,141.333 54.108,141.333 51.264 C 141.333 47.118,141.031 47.333,146.849 47.333 C 152.747 47.333,152.500 47.152,152.500 51.493 C 152.500 54.248,152.682 55.042,153.197 54.533 C 153.520 54.215,153.520 39.452,153.197 39.133 C 152.694 38.637,152.500 39.423,152.500 41.955 C 152.500 44.471,152.401 44.881,151.533 45.977 L 151.221 46.370 146.902 46.373 L 142.583 46.377 142.132 45.935 C 141.484 45.300,141.335 44.551,141.334 41.907 C 141.333 39.336,141.161 38.684,140.641 39.281 M262.536 39.338 C 262.050 40.116,262.303 54.500,262.802 54.500 C 263.436 54.500,263.661 39.848,263.036 39.283 C 262.761 39.034,262.723 39.038,262.536 39.338 M366.603 39.469 C 366.472 39.681,366.453 54.215,366.583 54.538 C 366.807 55.092,367.784 55.547,368.464 55.414 C 368.805 55.348,370.314 55.306,371.819 55.321 C 374.666 55.350,374.825 55.314,374.831 54.625 C 374.833 54.358,374.584 54.333,371.920 54.333 C 368.680 54.333,367.775 54.139,367.487 53.383 C 367.402 53.160,367.333 50.027,367.333 46.419 C 367.333 42.812,367.288 39.742,367.232 39.597 C 367.125 39.318,366.744 39.241,366.603 39.469 M210.894 53.250 C 210.946 53.387,210.932 53.655,210.862 53.845 L 210.734 54.191 210.325 53.846 C 209.925 53.507,209.923 53.495,210.240 53.250 C 210.647 52.936,210.773 52.936,210.894 53.250 " stroke="none" fill="#000000" fill-rule="evenodd"></path></g></svg>